<svg width="64" height="64" viewBox="5.5 -3.5 64 64" xmlns="http://www.w3.org/2000/svg" xmlns:xlink="http://www.w3.org/1999/xlink" id="Layer_1" overflow="hidden"><g><circle cx="37.785" cy="28.501" r="28.836" fill="#FFFFFF"/><path d="M37.441-3.5C46.392-3.5 54.013-0.375 60.298 5.872 63.306 8.881 65.593 12.32 67.155 16.186 68.716 20.053 69.499 24.157 69.499 28.5 69.499 32.881 68.726 36.986 67.185 40.813 65.642 44.641 63.365 48.023 60.357 50.956 57.234 54.041 53.691 56.404 49.728 58.042 45.767 59.68 41.671 60.499 37.443 60.499 33.215 60.499 29.167 59.691 25.3 58.07 21.434 56.452 17.967 54.109 14.9 51.043 11.833 47.977 9.5 44.519 7.9 40.671 6.3 36.823 5.5 32.767 5.5 28.5 5.5 24.271 6.309 20.205 7.928 16.3 9.547 12.395 11.9 8.9 14.985 5.814 21.08-0.394 28.565-3.5 37.441-3.5ZM37.557 2.272C30.243 2.272 24.09 4.825 19.099 9.929 16.584 12.482 14.651 15.348 13.299 18.529 11.945 21.71 11.27 25.034 11.27 28.501 11.27 31.93 11.945 35.235 13.299 38.414 14.652 41.597 16.584 44.435 19.099 46.93 21.613 49.426 24.45 51.329 27.614 52.645 30.775 53.959 34.09 54.616 37.557 54.616 40.985 54.616 44.307 53.951 47.53 52.617 50.749 51.282 53.651 49.36 56.243 46.846 61.233 41.97 63.727 35.856 63.727 28.502 63.727 24.959 63.079 21.607 61.784 18.445 60.491 15.283 58.604 12.465 56.13 9.987 50.984 4.844 44.795 2.272 37.557 2.272ZM37.156 23.187 32.869 25.416C32.411 24.465 31.85 23.797 31.184 23.416 30.517 23.036 29.898 22.845 29.326 22.845 26.47 22.845 25.04 24.73 25.04 28.502 25.04 30.216 25.402 31.586 26.125 32.615 26.849 33.644 27.916 34.159 29.326 34.159 31.193 34.159 32.507 33.244 33.27 31.416L37.212 33.416C36.374 34.979 35.212 36.207 33.726 37.102 32.242 37.998 30.603 38.445 28.812 38.445 25.955 38.445 23.649 37.57 21.897 35.816 20.145 34.064 19.269 31.626 19.269 28.503 19.269 25.455 20.155 23.037 21.926 21.246 23.697 19.456 25.935 18.56 28.641 18.56 32.604 18.558 35.441 20.101 37.156 23.187ZM55.613 23.187 51.384 25.416C50.927 24.465 50.364 23.797 49.698 23.416 49.03 23.036 48.391 22.845 47.784 22.845 44.927 22.845 43.497 24.73 43.497 28.502 43.497 30.216 43.86 31.586 44.583 32.615 45.306 33.644 46.372 34.159 47.784 34.159 49.649 34.159 50.964 33.244 51.725 31.416L55.725 33.416C54.85 34.979 53.668 36.207 52.184 37.102 50.698 37.998 49.079 38.445 47.327 38.445 44.431 38.445 42.118 37.57 40.386 35.816 38.65 34.064 37.784 31.626 37.784 28.503 37.784 25.455 38.669 23.037 40.442 21.246 42.212 19.456 44.45 18.56 47.155 18.56 51.117 18.558 53.938 20.101 55.613 23.187Z"/></g></svg>