<svg viewBox="0 0 841.9 744.1" xmlns="http://www.w3.org/2000/svg" xmlns:xlink="http://www.w3.org/1999/xlink" id="Calque_1" overflow="hidden"><g><path d="M415.1 176.2C420.1 176.2 424.2 172.1 424.2 167.1L424.2 103.7C424.2 98.7 420.1 94.6 415.1 94.6 410.1 94.6 406 98.7 406 103.7L406 167.1C406.1 172.2 410.1 176.2 415.1 176.2Z" fill="#E1EAEF"/><path d="M551.9 176.2C556.9 176.2 561 172.1 561 167.1L561 103.7C561 98.7 556.9 94.6 551.9 94.6 546.9 94.6 542.8 98.7 542.8 103.7L542.8 167.1C542.8 172.2 546.9 176.2 551.9 176.2Z" fill="#E1EAEF"/><path d="M651.7 421.4C652.3 425.4 652.6 429.5 652.6 433.7 652.6 480.3 614.7 518.2 568.1 518.2 521.5 518.2 483.6 480.3 483.6 433.7 483.6 431.8 483.7 429.9 483.8 428L483.2 427.4 483.9 426.7C487.5 383.4 523.8 349.2 568.1 349.2 594.8 349.2 618.6 361.6 634.1 381L644.8 370.3C626.5 348.2 598.9 334.1 568.1 334.1 513.2 334.1 468.6 378.7 468.6 433.6 468.6 488.5 513.2 533.1 568.1 533.1 623 533.1 667.6 488.5 667.6 433.6 667.6 425 666.5 416.6 664.4 408.6L651.7 421.4Z" fill="#2F1A57"/><path d="M503 407.6 492.4 418.2 564.5 490.3 677.7 377 667.1 366.4 564.5 469.1Z" fill="#E1EAEF"/><path d="M299 491.7 466.5 491.7C463.8 486.9 461.3 481.9 459.3 476.7L299 476.8 299 476.8" fill="#E1EAEF"/><rect x="299.5" y="127.7" width="94.6" height="15" fill="#E1EAEF"/><rect x="436.2" y="127.7" width="94.6" height="15" fill="#E1EAEF"/><path d="M605.6 163.5 605.6 322.9C610.8 324.6 615.8 326.8 620.6 329.2L620.6 163.5C620.6 143.7 604.5 127.7 584.8 127.7L573 127.7 573 142.7 584.8 142.7C596.2 142.7 605.6 152 605.6 163.5Z" fill="#E1EAEF"/></g></svg>