<svg width="1280" height="720" xmlns="http://www.w3.org/2000/svg" xmlns:xlink="http://www.w3.org/1999/xlink" overflow="hidden"><defs><clipPath id="clip0"><rect x="0" y="0" width="1280" height="720"/></clipPath></defs><g clip-path="url(#clip0)"><rect x="0" y="0" width="1280" height="720" fill="#FFFFFF"/><text fill="#1A1A1A" font-family="Open Sans SemiBold,Open Sans SemiBold_MSFontService,Arial" font-weight="600" font-size="59" transform="translate(97.6 124)">sequencing</text><path d="M217 565.834C217 559.298 222.298 554 228.834 554L1241.17 554C1247.7 554 1253 559.298 1253 565.834L1253 613.166C1253 619.702 1247.7 625 1241.17 625L228.834 625C222.298 625 217 619.702 217 613.166Z" fill="#232253" fill-rule="evenodd"/><text fill="#F1EDE6" font-family="Open Sans SemiBold,Open Sans SemiBold_MSFontService,Arial" font-weight="600" font-size="24" transform="translate(619.3 598)">Production network</text><path d="M18 565.833C18 559.298 23.298 554 29.8334 554L196.167 554C202.702 554 208 559.298 208 565.833L208 613.167C208 619.702 202.702 625 196.167 625L29.8334 625C23.298 625 18 619.702 18 613.167Z" stroke="#00B050" stroke-width="4" stroke-miterlimit="8" fill="#232253" fill-rule="evenodd"/><text fill="#F1EDE6" font-family="Open Sans SemiBold,Open Sans SemiBold_MSFontService,Arial" font-weight="600" font-size="24" transform="translate(37.1334 598)">Test network</text><path d="M417 486.833C417 480.298 422.298 475 428.833 475L1241.17 475C1247.7 475 1253 480.298 1253 486.833L1253 534.167C1253 540.702 1247.7 546 1241.17 546L428.833 546C422.298 546 417 540.702 417 534.167Z" fill="#6560A8" fill-rule="evenodd"/><text fill="#F1EDE6" font-family="Open Sans SemiBold,Open Sans SemiBold_MSFontService,Arial" font-weight="600" font-size="24" transform="translate(698.846 519)">Production <tspan font-size="24" x="134.167" y="0">Hypervisors</tspan></text><path d="M217 486.833C217 480.298 222.298 475 228.833 475L395.167 475C401.702 475 407 480.298 407 486.833L407 534.167C407 540.702 401.702 546 395.167 546L228.833 546C222.298 546 217 540.702 217 534.167Z" stroke="#00B050" stroke-width="4" stroke-miterlimit="8" fill="#6560A8" fill-rule="evenodd"/><text fill="#F1EDE6" font-family="Open Sans SemiBold,Open Sans SemiBold_MSFontService,Arial" font-weight="600" font-size="24" transform="translate(267.877 519)">Test HV</text><path d="M603 407.001C603 400.373 608.373 395 615.001 395L1241 395C1247.63 395 1253 400.373 1253 407.001L1253 454.999C1253 461.627 1247.63 467 1241 467L615.001 467C608.373 467 603 461.627 603 454.999Z" fill="#2D67B9" fill-rule="evenodd"/><text fill="#F1EDE6" font-family="Open Sans SemiBold,Open Sans SemiBold_MSFontService,Arial" font-weight="600" font-size="24" transform="translate(836.999 440)">Prod OS images</text><path d="M418 407C418 400.373 423.373 395 430 395L583 395C589.627 395 595 400.373 595 407L595 455C595 461.627 589.627 467 583 467L430 467C423.373 467 418 461.627 418 455Z" stroke="#00B050" stroke-width="4" stroke-miterlimit="8" fill="#2D67B9" fill-rule="evenodd"/><text fill="#F1EDE6" font-family="Open Sans SemiBold,Open Sans SemiBold_MSFontService,Arial" font-weight="600" font-size="24" transform="translate(450.434 440)">Test <tspan font-size="24" x="54.6667" y="0">OSes</tspan></text><path d="M788 328C788 321.373 793.373 316 800 316L1241 316C1247.63 316 1253 321.373 1253 328L1253 376C1253 382.627 1247.63 388 1241 388L800 388C793.373 388 788 382.627 788 376Z" fill="#5DAAD3" fill-rule="evenodd"/><text fill="#F1EDE6" font-family="Open Sans SemiBold,Open Sans SemiBold_MSFontService,Arial" font-weight="600" font-size="24" transform="translate(915.303 361)">Prod Middlewares</text><path d="M603 328C603 321.373 608.373 316 615 316L767 316C773.627 316 779 321.373 779 328L779 376C779 382.627 773.627 388 767 388L615 388C608.373 388 603 382.627 603 376Z" stroke="#00B050" stroke-width="4" stroke-miterlimit="8" fill="#5DAAD3" fill-rule="evenodd"/><text fill="#F1EDE6" font-family="Open Sans SemiBold,Open Sans SemiBold_MSFontService,Arial" font-weight="600" font-size="24" transform="translate(666.867 347)">Test <tspan font-size="24" x="-50.08" y="28">Middlewares</tspan></text><path d="M983 249C983 242.373 988.373 237 995 237L1241 237C1247.63 237 1253 242.373 1253 249L1253 297C1253 303.627 1247.63 309 1241 309L995 309C988.373 309 983 303.627 983 297Z" fill="#EE5557" fill-rule="evenodd"/><text fill="#F1EDE6" font-family="Open Sans SemiBold,Open Sans SemiBold_MSFontService,Arial" font-weight="600" font-size="24" transform="translate(1058.43 282)">Prod Apps</text><path d="M637 249C637 242.373 642.373 237 649 237L797 237C803.627 237 809 242.373 809 249L809 297C809 303.627 803.627 309 797 309L649 309C642.373 309 637 303.627 637 297Z" stroke="#00B050" stroke-width="4" stroke-miterlimit="8" fill="#EE5557" fill-rule="evenodd"/><text fill="#F1EDE6" font-family="Open Sans SemiBold,Open Sans SemiBold_MSFontService,Arial" font-weight="600" font-size="24" transform="translate(669.056 282)">Dev Apps</text><path d="M821 249C821 242.373 826.373 237 833 237L959 237C965.627 237 971 242.373 971 249L971 297C971 303.627 965.627 309 959 309L833 309C826.373 309 821 303.627 821 297Z" stroke="#00B050" stroke-width="4" stroke-miterlimit="8" fill="#EE5557" fill-rule="evenodd"/><text fill="#F1EDE6" font-family="Open Sans SemiBold,Open Sans SemiBold_MSFontService,Arial" font-weight="600" font-size="24" transform="translate(839.595 282)">Test Apps</text></g></svg>