<svg width="64" height="64" viewBox="5.5 -3.5 64 64" xmlns="http://www.w3.org/2000/svg" xmlns:xlink="http://www.w3.org/1999/xlink" id="Layer_1" overflow="hidden"><g><circle cx="36.944" cy="28.631" r="29.105" fill="#FFFFFF"/><g><path d="M37.443-3.5C46.394-3.5 53.974-0.395 60.185 5.815 66.393 11.987 69.5 19.548 69.5 28.5 69.5 37.454 66.451 44.957 60.355 51.014 53.918 57.338 46.279 60.5 37.443 60.5 28.794 60.5 21.29 57.357 14.929 51.071 8.644 44.786 5.5 37.264 5.5 28.501 5.5 19.778 8.644 12.216 14.929 5.816 21.138-0.395 28.643-3.5 37.443-3.5ZM37.557 2.272C30.281 2.272 24.129 4.844 19.1 9.987 13.88 15.283 11.271 21.454 11.271 28.5 11.271 35.625 13.861 41.757 19.041 46.9 24.222 52.082 30.393 54.671 37.555 54.671 44.678 54.671 50.889 52.062 56.184 46.843 61.213 41.967 63.727 35.853 63.727 28.5 63.727 21.187 61.174 15.015 56.071 9.987 51.004 4.842 44.832 2.272 37.557 2.272ZM23.271 23.985C23.88 20.061 25.46 17.023 28.013 14.871 30.565 12.719 33.669 11.643 37.327 11.643 42.354 11.643 46.356 13.263 49.327 16.499 52.298 19.737 53.784 23.89 53.784 28.956 53.784 33.871 52.241 37.956 49.157 41.212 46.069 44.468 42.071 46.098 37.155 46.098 33.536 46.098 30.412 45.013 27.784 42.841 25.155 40.669 23.575 37.584 23.041 33.584L31.1 33.584C31.29 37.47 33.633 39.413 38.129 39.413 40.375 39.413 42.186 38.441 43.557 36.499 44.93 34.557 45.616 31.965 45.616 28.728 45.616 25.337 44.987 22.757 43.731 20.985 42.473 19.214 40.665 18.328 38.301 18.328 34.033 18.328 31.634 20.213 31.101 23.984L33.444 23.984 27.102 30.327 20.759 23.984 23.271 23.985 23.271 23.985Z"/></g></g></svg>