<svg width="64" height="64" viewBox="5.5 -3.5 64 64" xmlns="http://www.w3.org/2000/svg" xmlns:xlink="http://www.w3.org/1999/xlink" id="Layer_1" overflow="hidden"><g><circle cx="37.637" cy="28.806" r="28.276" fill="#FFFFFF"/><g><path d="M37.443-3.5C46.431-3.5 54.013-0.415 60.185 5.757 66.393 11.967 69.5 19.548 69.5 28.5 69.5 37.491 66.451 44.976 60.355 50.956 53.879 57.319 46.242 60.5 37.443 60.5 28.794 60.5 21.29 57.356 14.929 51.07 8.644 44.784 5.5 37.262 5.5 28.5 5.5 19.739 8.644 12.158 14.929 5.758 21.101-0.415 28.604-3.5 37.443-3.5ZM37.557 2.272C30.281 2.272 24.129 4.825 19.1 9.929 13.88 15.263 11.271 21.454 11.271 28.501 11.271 35.587 13.861 41.721 19.041 46.899 24.222 52.081 30.393 54.67 37.555 54.67 44.678 54.67 50.889 52.063 56.184 46.842 61.213 42.004 63.727 35.89 63.727 28.499 63.727 21.223 61.174 15.034 56.071 9.928 50.967 4.824 44.795 2.272 37.557 2.272ZM46.129 20.557 46.129 33.642 42.473 33.642 42.473 49.184 32.529 49.184 32.529 33.643 28.873 33.643 28.873 20.557C28.873 19.985 29.073 19.5 29.472 19.1 29.873 18.701 30.359 18.5 30.929 18.5L44.073 18.5C44.606 18.5 45.083 18.7 45.501 19.1 45.918 19.5 46.129 19.986 46.129 20.557ZM33.042 12.329C33.042 9.321 34.527 7.815 37.5 7.815 40.473 7.815 41.957 9.319 41.957 12.329 41.957 15.3 40.471 16.786 37.5 16.786 34.529 16.786 33.042 15.3 33.042 12.329Z"/></g></g></svg>