<svg width="1280" height="720" xmlns="http://www.w3.org/2000/svg" xmlns:xlink="http://www.w3.org/1999/xlink" overflow="hidden"><defs><clipPath id="clip0"><rect x="0" y="0" width="1280" height="720"/></clipPath><linearGradient x1="953" y1="234.5" x2="1194" y2="234.5" gradientUnits="userSpaceOnUse" spreadMethod="reflect" id="fill1"><stop offset="0" stop-color="#EE5557"/><stop offset="0.73" stop-color="#EE5557"/><stop offset="0.865" stop-color="#FFFFFF"/><stop offset="1" stop-color="#F0F7FC"/></linearGradient></defs><g clip-path="url(#clip0)"><rect x="0" y="0" width="1280" height="720" fill="#FFFFFF"/><text fill="#1A1A1A" font-family="Open Sans SemiBold,Open Sans SemiBold_MSFontService,Arial" font-weight="600" font-size="59" transform="translate(97.6 124)">plan</text><path d="M172 577C172 570.373 177.373 565 184 565L613 565C619.627 565 625 570.373 625 577L625 625C625 631.627 619.627 637 613 637L184 637C177.373 637 172 631.627 172 625Z" fill="#6560A8" fill-rule="evenodd"/><text fill="#F1EDE6" font-family="Open Sans SemiBold,Open Sans SemiBold_MSFontService,Arial" font-weight="600" font-size="21" transform="translate(369.352 608)">Hosts</text><path d="M390 452.167C390 450.418 391.418 449 393.167 449L405.833 449C407.582 449 409 450.418 409 452.167L409 516.833C409 518.582 407.582 520 405.833 520L393.167 520C391.418 520 390 518.582 390 516.833Z" fill="#2D67B9" fill-rule="evenodd"/><text fill="#F1EDE6" font-family="Open Sans SemiBold,Open Sans SemiBold_MSFontService,Arial" font-weight="600" font-size="21" transform="translate(393.774 492)">1</text><path d="M8 194.5C8 184.283 16.2829 176 26.5004 176L153.5 176C163.717 176 172 184.283 172 194.5L172 268.5C172 278.717 163.717 287 153.5 287L26.5004 287C16.2829 287 8 278.717 8 268.5Z" stroke="#00B050" stroke-width="4" stroke-miterlimit="8" fill="#EE5557" fill-rule="evenodd"/><text fill="#F1EDE6" font-family="Open Sans SemiBold,Open Sans SemiBold_MSFontService,Arial" font-weight="600" font-size="21" transform="translate(83.7455 213)">0<tspan font-size="21" x="-33.0867" y="26">Specific</tspan><tspan font-size="21" x="-59.5" y="51">Assignments</tspan></text><path d="M180 198.333C180 188.208 188.208 180 198.333 180L921.667 180C931.792 180 940 188.208 940 198.333L940 271.667C940 281.792 931.792 290 921.667 290L198.333 290C188.208 290 180 281.792 180 271.667Z" fill="#EE5557" fill-rule="evenodd"/><text fill="#F1EDE6" font-family="Open Sans SemiBold,Open Sans SemiBold_MSFontService,Arial" font-weight="600" font-size="21" transform="translate(464.287 242)">Reference frame A</text><path d="M953 197.5C953 187.283 961.283 179 971.5 179L1175.5 179C1185.72 179 1194 187.283 1194 197.5L1194 271.5C1194 281.717 1185.72 290 1175.5 290L971.5 290C961.283 290 953 281.717 953 271.5Z" fill="url(#fill1)" fill-rule="evenodd"/><text fill="#F1EDE6" font-family="Open Sans SemiBold,Open Sans SemiBold_MSFontService,Arial" font-weight="600" font-size="21" transform="translate(1024.82 229)">Futur use<tspan font-size="21" x="3.7533" y="26">(</tspan><tspan font-size="21" x="10.5867" y="26">Ref</tspan><tspan font-size="21" x="49.7533" y="26">B,…)</tspan></text><path d="M180 333.5C180 323.283 188.283 315 198.5 315L358.5 315C368.717 315 377 323.283 377 333.5L377 407.5C377 417.717 368.717 426 358.5 426L198.5 426C188.283 426 180 417.717 180 407.5Z" stroke="#00B050" stroke-width="4" stroke-miterlimit="8" fill="#67B4E2" fill-rule="evenodd"/><text fill="#F1EDE6" font-family="Open Sans SemiBold,Open Sans SemiBold_MSFontService,Arial" font-weight="600" font-size="21" transform="translate(272.325 352)">0<tspan font-size="21" x="-33.0867" y="26">Specific</tspan><tspan font-size="21" x="-59.5" y="51">Assignments</tspan></text><path d="M390 332.5C390 322.835 397.835 315 407.5 315L477.5 315C487.165 315 495 322.835 495 332.5L495 407.5C495 417.165 487.165 425 477.5 425L407.5 425C397.835 425 390 417.165 390 407.5Z" fill="#67B4E2" fill-rule="evenodd"/><text fill="#F1EDE6" font-family="Open Sans SemiBold,Open Sans SemiBold_MSFontService,Arial" font-weight="600" font-size="21" transform="translate(408.044 364)">Type A<tspan font-size="21" x="14.3333" y="26">net.</tspan></text><path d="M742 332.5C742 322.283 750.283 314 760.5 314L921.5 314C931.717 314 940 322.283 940 332.5L940 406.5C940 416.717 931.717 425 921.5 425L760.5 425C750.283 425 742 416.717 742 406.5Z" fill="#67B4E2" fill-rule="evenodd"/><text fill="#F1EDE6" font-family="Open Sans SemiBold,Open Sans SemiBold_MSFontService,Arial" font-weight="600" font-size="21" transform="translate(786.165 364)">Future use <tspan font-size="21" x="-0.833313" y="26">extensions</tspan></text><path d="M508 331.334C508 321.761 515.761 314 525.334 314L594.666 314C604.239 314 612 321.761 612 331.334L612 406.666C612 416.239 604.239 424 594.666 424L525.334 424C515.761 424 508 416.239 508 406.666Z" fill="#67B4E2" fill-rule="evenodd"/><text fill="#F1EDE6" font-family="Open Sans SemiBold,Open Sans SemiBold_MSFontService,Arial" font-weight="600" font-size="21" transform="translate(525.453 363)">Type B<tspan font-size="21" x="14.2467" y="26">net.</tspan></text><path d="M625 332.334C625 322.761 632.761 315 642.334 315L711.666 315C721.239 315 729 322.761 729 332.334L729 407.666C729 417.239 721.239 425 711.666 425L642.334 425C632.761 425 625 417.239 625 407.666Z" fill="#67B4E2" fill-rule="evenodd"/><text fill="#F1EDE6" font-family="Open Sans SemiBold,Open Sans SemiBold_MSFontService,Arial" font-weight="600" font-size="21" transform="translate(643.029 364)">Type C<tspan font-size="21" x="14" y="26">net.</tspan></text><path d="M415 452.167C415 450.418 416.418 449 418.167 449L430.833 449C432.582 449 434 450.418 434 452.167L434 516.833C434 518.582 432.582 520 430.833 520L418.167 520C416.418 520 415 518.582 415 516.833Z" fill="#2D67B9" fill-rule="evenodd"/><text fill="#F1EDE6" font-family="Open Sans SemiBold,Open Sans SemiBold_MSFontService,Arial" font-weight="600" font-size="21" transform="translate(417.971 492)">2</text><path d="M439 452.167C439 450.418 440.418 449 442.167 449L454.833 449C456.582 449 458 450.418 458 452.167L458 516.833C458 518.582 456.582 520 454.833 520L442.167 520C440.418 520 439 518.582 439 516.833Z" fill="#2D67B9" fill-rule="evenodd"/><text fill="#F1EDE6" font-family="Open Sans SemiBold,Open Sans SemiBold_MSFontService,Arial" font-weight="600" font-size="21" transform="translate(442.167 492)">3</text><path d="M463 454.333C463 451.388 465.388 449 468.333 449L489.667 449C492.612 449 495 451.388 495 454.333L495 514.667C495 517.612 492.612 520 489.667 520L468.333 520C465.388 520 463 517.612 463 514.667Z" fill="#2D67B9" fill-rule="evenodd"/><text fill="#F1EDE6" font-family="Open Sans SemiBold,Open Sans SemiBold_MSFontService,Arial" font-weight="600" font-size="21" transform="translate(470.005 492)">…</text><path d="M160.5 565.5C160.5 555.283 161.881 547 163.583 547L397.417 547C399.12 547 400.5 538.718 400.5 528.5 400.5 538.718 401.88 547 403.583 547L637.417 547C639.12 547 640.5 555.283 640.5 565.501" stroke="#232253" stroke-width="3" stroke-miterlimit="8" fill="none" fill-rule="evenodd"/></g></svg>