<svg width="1280" height="720" xmlns="http://www.w3.org/2000/svg" xmlns:xlink="http://www.w3.org/1999/xlink" overflow="hidden"><defs><clipPath id="clip0"><rect x="0" y="0" width="1280" height="720"/></clipPath><clipPath id="clip1"><rect x="243" y="352" width="80" height="80"/></clipPath><clipPath id="clip2"><rect x="243" y="352" width="80" height="80"/></clipPath><clipPath id="clip3"><rect x="243" y="352" width="80" height="80"/></clipPath><clipPath id="clip4"><rect x="1095" y="564" width="80" height="80"/></clipPath><clipPath id="clip5"><rect x="1095" y="564" width="80" height="80"/></clipPath><clipPath id="clip6"><rect x="1095" y="564" width="80" height="80"/></clipPath><clipPath id="clip7"><rect x="1096" y="303" width="81" height="81"/></clipPath><clipPath id="clip8"><rect x="1096" y="303" width="81" height="81"/></clipPath><clipPath id="clip9"><rect x="1096" y="303" width="81" height="81"/></clipPath><clipPath id="clip10"><rect x="175" y="176" width="80" height="81"/></clipPath><clipPath id="clip11"><rect x="175" y="176" width="80" height="81"/></clipPath><clipPath id="clip12"><rect x="175" y="176" width="80" height="81"/></clipPath><clipPath id="clip13"><rect x="643" y="176" width="81" height="81"/></clipPath><clipPath id="clip14"><rect x="643" y="176" width="81" height="81"/></clipPath><clipPath id="clip15"><rect x="643" y="176" width="81" height="81"/></clipPath><clipPath id="clip16"><rect x="918" y="564" width="81" height="80"/></clipPath><clipPath id="clip17"><rect x="918" y="564" width="81" height="80"/></clipPath><clipPath id="clip18"><rect x="918" y="564" width="81" height="80"/></clipPath><clipPath id="clip19"><rect x="175" y="323" width="80" height="80"/></clipPath><clipPath id="clip20"><rect x="175" y="323" width="80" height="80"/></clipPath><clipPath id="clip21"><rect x="175" y="323" width="80" height="80"/></clipPath></defs><g clip-path="url(#clip0)"><rect x="0" y="0" width="1280" height="720" fill="#FFFFFF"/><path d="M148.5 323.834C148.5 308.738 160.738 296.5 175.834 296.5L557.166 296.5C572.262 296.5 584.5 308.738 584.5 323.834L584.5 433.166C584.5 448.262 572.262 460.5 557.166 460.5L175.834 460.5C160.738 460.5 148.5 448.262 148.5 433.166Z" stroke="#96A8B5" stroke-width="1.33333" stroke-miterlimit="8" fill="#835A86" fill-rule="evenodd"/><path d="M148.5 143.834C148.5 128.738 160.738 116.5 175.834 116.5L412.166 116.5C427.262 116.5 439.5 128.738 439.5 143.834L439.5 253.166C439.5 268.262 427.262 280.5 412.166 280.5L175.834 280.5C160.738 280.5 148.5 268.262 148.5 253.166Z" stroke="#96A8B5" stroke-width="1.33333" stroke-miterlimit="8" fill="#4FBEC1" fill-rule="evenodd"/><text fill="#FFFFFF" font-family="Open Sans SemiBold,Open Sans SemiBold_MSFontService,Arial" font-weight="600" font-size="24" transform="translate(263.277 337)">Large IPv6 Site with<tspan font-size="24" x="90" y="28">local NAT64</tspan><tspan font-size="24" x="-98.2669" y="-185">Small IPv6 Site </tspan>without<tspan font-size="24" x="29.8998" y="-157">local NAT64</tspan></text><path d="M315.976 380.386 995.499 337.63 994.668 324.427 1022.74 349.173 997.991 377.241 997.16 364.038 317.638 406.793Z" fill="#5DAAD3" fill-rule="evenodd"/><text fill="#FFFFFF" font-family="Open Sans SemiBold,Open Sans SemiBold_MSFontService,Arial" font-weight="600" font-size="21" transform="matrix(0.998026 -0.062796 0.062796 0.998026 642.081 380)">IPv4</text><g clip-path="url(#clip1)"><g clip-path="url(#clip2)"><g clip-path="url(#clip3)"><path d="M323 360.072C323 355.617 319.383 352 314.928 352L251.072 352C246.617 352 243 355.617 243 360.072L243 423.928C243 428.383 246.617 432 251.072 432L314.928 432C319.383 432 323 428.383 323 423.928L323 360.072Z" fill="#FFFEFE" fill-rule="evenodd"/><path d="M323 360.072C323 355.617 319.383 352 314.928 352L251.072 352C246.617 352 243 355.617 243 360.072L243 423.928C243 428.383 246.617 432 251.072 432L314.928 432C319.383 432 323 428.383 323 423.928L323 360.072ZM318.733 360.072 318.733 423.928C318.733 426.028 317.028 427.733 314.928 427.733 314.928 427.733 251.072 427.733 251.072 427.733 248.972 427.733 247.267 426.028 247.267 423.928L247.267 360.072C247.267 357.972 248.972 356.267 251.072 356.267L314.928 356.267C317.028 356.267 318.733 357.972 318.733 360.072Z" fill="#232253" fill-rule="evenodd"/><path d="M292.027 394.41C291.657 396.199 290.874 397.838 289.783 399.222L295.271 405.758 295.809 399.587 300.207 404.825 299.391 414.199 289.768 413.361 285.516 408.297 291.696 408.835 286.172 402.258C284.537 403.141 282.666 403.642 280.679 403.642 275.081 403.642 270.404 399.664 269.326 394.382L264.49 394.382C263.71 395.633 262.322 396.466 260.742 396.466 258.306 396.466 256.329 394.489 256.329 392.054 256.329 389.619 258.306 387.642 260.742 387.642 262.322 387.642 263.71 388.476 264.49 389.727L269.326 389.727C270.404 384.445 275.081 380.466 280.679 380.466 282.665 380.466 284.535 380.967 286.17 381.849L291.658 375.316 285.488 375.852 289.888 370.615 299.262 369.801 300.097 379.424 295.844 384.487 295.307 378.307 289.781 384.884C290.872 386.267 291.655 387.905 292.026 389.693L300.557 389.693 296.177 385.313 303.017 385.313 309.671 391.966 302.841 398.796 296.228 398.796 300.614 394.41 292.027 394.41ZM280.679 384.053C285.095 384.053 288.681 387.638 288.681 392.054 288.681 396.47 285.095 400.056 280.679 400.056 276.263 400.056 272.678 396.47 272.678 392.054 272.678 387.638 276.263 384.053 280.679 384.053Z" fill="#232253" fill-rule="evenodd"/></g></g></g><g clip-path="url(#clip4)"><g clip-path="url(#clip5)"><g clip-path="url(#clip6)"><path d="M1175 572.072C1175 567.617 1171.38 564 1166.93 564L1103.07 564C1098.62 564 1095 567.617 1095 572.072L1095 635.928C1095 640.383 1098.62 644 1103.07 644L1166.93 644C1171.38 644 1175 640.383 1175 635.928L1175 572.072Z" fill="#FFFEFE" fill-rule="evenodd"/><path d="M1166.98 564 1167.03 564.001 1167.08 564.002 1167.14 564.003 1167.19 564.004 1167.24 564.006 1167.29 564.008 1167.34 564.01 1167.39 564.013 1167.45 564.016 1167.5 564.02 1167.55 564.023 1167.6 564.028 1167.65 564.032 1167.7 564.037 1167.75 564.042 1167.8 564.047 1167.85 564.053 1167.9 564.059 1167.96 564.065 1168.01 564.071 1168.06 564.078 1168.11 564.086 1168.16 564.093 1168.21 564.101 1168.26 564.109 1168.31 564.117 1168.36 564.126 1168.41 564.135 1168.46 564.145 1168.5 564.154 1168.55 564.164 1168.6 564.174 1168.65 564.185 1168.7 564.196 1168.75 564.207 1168.8 564.218 1168.85 564.23 1168.9 564.242 1168.94 564.254 1168.99 564.267 1169.04 564.28 1169.09 564.293 1169.14 564.306 1169.18 564.32 1169.23 564.334 1169.28 564.349 1169.33 564.363 1169.37 564.378 1169.42 564.393 1169.47 564.409 1169.52 564.425 1169.56 564.441 1169.61 564.457 1169.66 564.473 1169.7 564.49 1169.75 564.507 1169.79 564.525 1169.84 564.542 1169.89 564.56 1169.93 564.578 1169.98 564.597 1170.02 564.616 1170.07 564.635 1170.11 564.654 1170.16 564.674 1170.2 564.693 1170.25 564.714 1170.29 564.734 1170.34 564.754 1170.38 564.775 1170.43 564.797 1170.47 564.818 1170.51 564.839 1170.56 564.862 1170.6 564.884 1170.64 564.906 1170.69 564.929 1170.73 564.952 1170.77 564.975 1170.82 564.998 1170.86 565.022 1170.9 565.046 1170.94 565.07 1170.99 565.095 1171.03 565.119 1171.07 565.144 1171.11 565.169 1171.15 565.195 1171.2 565.22 1171.24 565.246 1171.28 565.273 1171.32 565.299 1171.36 565.325 1171.4 565.352 1171.44 565.379 1171.48 565.407 1171.52 565.434 1171.56 565.462 1171.6 565.49 1171.64 565.518 1171.68 565.547 1171.72 565.575 1171.76 565.605 1171.79 565.634 1171.83 565.663 1171.87 565.693 1171.91 565.723 1171.95 565.753 1171.99 565.783 1172.02 565.814 1172.06 565.844 1172.1 565.875 1172.14 565.906 1172.17 565.938 1172.21 565.969 1172.25 566.001 1172.28 566.033 1172.32 566.066 1172.35 566.098 1172.39 566.131 1172.43 566.164 1172.46 566.197 1172.5 566.23 1172.53 566.263 1172.57 566.297 1172.6 566.331 1172.63 566.365 1172.67 566.4 1172.7 566.434 1172.74 566.469 1172.77 566.504 1172.8 566.539 1172.84 566.574 1172.87 566.61 1172.9 566.646 1172.93 566.682 1172.97 566.718 1173 566.754 1173.03 566.791 1173.06 566.827 1173.09 566.864 1173.12 566.902 1173.16 566.939 1173.19 566.976 1173.22 567.014 1173.25 567.052 1173.28 567.09 1173.31 567.128 1173.34 567.166 1173.37 567.205 1173.4 567.244 1173.42 567.283 1173.45 567.322 1173.48 567.361 1173.51 567.401 1173.54 567.44 1173.57 567.48 1173.59 567.52 1173.62 567.56 1173.65 567.601 1173.67 567.641 1173.7 567.682 1173.73 567.723 1173.75 567.764 1173.78 567.805 1173.81 567.846 1173.83 567.888 1173.86 567.929 1173.88 567.971 1173.91 568.013 1173.93 568.055 1173.95 568.098 1173.98 568.14 1174 568.183 1174.03 568.226 1174.05 568.269 1174.07 568.312 1174.09 568.355 1174.12 568.399 1174.14 568.442 1174.16 568.486 1174.18 568.53 1174.2 568.574 1174.22 568.618 1174.25 568.662 1174.27 568.707 1174.29 568.751 1174.31 568.796 1174.33 568.841 1174.35 568.886 1174.37 568.931 1174.38 568.977 1174.4 569.022 1174.42 569.068 1174.44 569.114 1174.46 569.159 1174.48 569.205 1174.49 569.251 1174.51 569.298 1174.53 569.344 1174.54 569.391 1174.56 569.438 1174.58 569.484 1174.59 569.531 1174.61 569.578 1174.62 569.626 1174.64 569.673 1174.65 569.72 1174.67 569.768 1174.68 569.815 1174.69 569.863 1174.71 569.911 1174.72 569.959 1174.73 570.007 1174.75 570.056 1174.76 570.104 1174.77 570.153 1174.78 570.201 1174.79 570.25 1174.8 570.299 1174.82 570.348 1174.83 570.397 1174.84 570.446 1174.85 570.495 1174.86 570.545 1174.86 570.594 1174.87 570.644 1174.88 570.694 1174.89 570.743 1174.9 570.794 1174.91 570.843 1174.91 570.894 1174.92 570.944 1174.93 570.994 1174.94 571.045 1174.94 571.095 1174.95 571.146 1174.95 571.197 1174.96 571.247 1174.96 571.298 1174.97 571.349 1174.97 571.4 1174.98 571.451 1174.98 571.503 1174.98 571.554 1174.99 571.606 1174.99 571.657 1174.99 571.709 1174.99 571.76 1175 571.812 1175 571.864 1175 571.916 1175 571.968 1175 572.02 1175 572.072 1175 635.928 1175 635.98 1175 636.032 1175 636.084 1175 636.136 1175 636.188 1174.99 636.24 1174.99 636.291 1174.99 636.343 1174.99 636.394 1174.98 636.446 1174.98 636.497 1174.98 636.549 1174.97 636.6 1174.97 636.651 1174.96 636.702 1174.96 636.753 1174.95 636.803 1174.95 636.854 1174.94 636.905 1174.94 636.955 1174.93 637.006 1174.92 637.056 1174.91 637.106 1174.91 637.157 1174.9 637.206 1174.89 637.257 1174.88 637.306 1174.87 637.356 1174.86 637.406 1174.86 637.455 1174.85 637.505 1174.84 637.554 1174.83 637.603 1174.82 637.652 1174.8 637.701 1174.79 637.75 1174.78 637.799 1174.77 637.847 1174.76 637.896 1174.75 637.944 1174.73 637.993 1174.72 638.041 1174.71 638.089 1174.69 638.137 1174.68 638.185 1174.67 638.232 1174.65 638.28 1174.64 638.327 1174.62 638.374 1174.61 638.422 1174.59 638.469 1174.58 638.516 1174.56 638.562 1174.54 638.609 1174.53 638.656 1174.51 638.702 1174.49 638.749 1174.48 638.795 1174.46 638.841 1174.44 638.886 1174.42 638.932 1174.4 638.978 1174.38 639.023 1174.37 639.069 1174.35 639.114 1174.33 639.159 1174.31 639.204 1174.29 639.249 1174.27 639.293 1174.25 639.338 1174.22 639.382 1174.2 639.426 1174.18 639.47 1174.16 639.514 1174.14 639.558 1174.12 639.601 1174.09 639.645 1174.07 639.688 1174.05 639.731 1174.03 639.774 1174 639.817 1173.98 639.86 1173.95 639.902 1173.93 639.945 1173.91 639.987 1173.88 640.029 1173.86 640.071 1173.83 640.112 1173.81 640.154 1173.78 640.195 1173.75 640.236 1173.73 640.277 1173.7 640.318 1173.67 640.359 1173.65 640.399 1173.62 640.44 1173.59 640.48 1173.57 640.52 1173.54 640.56 1173.51 640.599 1173.48 640.639 1173.45 640.678 1173.42 640.717 1173.4 640.756 1173.37 640.795 1173.34 640.834 1173.31 640.872 1173.28 640.91 1173.25 640.948 1173.22 640.986 1173.19 641.024 1173.16 641.061 1173.12 641.098 1173.09 641.136 1173.06 641.173 1173.03 641.209 1173 641.246 1172.97 641.282 1172.93 641.318 1172.9 641.354 1172.87 641.39 1172.84 641.426 1172.8 641.461 1172.77 641.496 1172.74 641.531 1172.7 641.566 1172.67 641.6 1172.63 641.635 1172.6 641.669 1172.57 641.703 1172.53 641.737 1172.5 641.77 1172.46 641.803 1172.43 641.836 1172.39 641.869 1172.35 641.902 1172.32 641.934 1172.28 641.967 1172.25 641.999 1172.21 642.031 1172.17 642.062 1172.14 642.094 1172.1 642.125 1172.06 642.156 1172.02 642.186 1171.99 642.217 1171.95 642.247 1171.91 642.277 1171.87 642.307 1171.83 642.337 1171.79 642.366 1171.76 642.395 1171.72 642.425 1171.68 642.453 1171.64 642.482 1171.6 642.51 1171.56 642.538 1171.52 642.566 1171.48 642.593 1171.44 642.621 1171.4 642.648 1171.36 642.675 1171.32 642.701 1171.28 642.727 1171.24 642.754 1171.2 642.78 1171.15 642.805 1171.11 642.831 1171.07 642.856 1171.03 642.881 1170.99 642.905 1170.94 642.93 1170.9 642.954 1170.86 642.978 1170.82 643.002 1170.77 643.025 1170.73 643.048 1170.69 643.071 1170.64 643.094 1170.6 643.116 1170.56 643.138 1170.51 643.161 1170.47 643.182 1170.43 643.203 1170.38 643.225 1170.34 643.246 1170.29 643.266 1170.25 643.286 1170.2 643.307 1170.16 643.326 1170.11 643.346 1170.07 643.365 1170.02 643.384 1169.98 643.403 1169.93 643.422 1169.89 643.44 1169.84 643.458 1169.79 643.475 1169.75 643.493 1169.7 643.51 1169.66 643.527 1169.61 643.543 1169.56 643.559 1169.52 643.575 1169.47 643.591 1169.42 643.607 1169.37 643.622 1169.33 643.637 1169.28 643.651 1169.23 643.666 1169.18 643.68 1169.14 643.694 1169.09 643.707 1169.04 643.72 1168.99 643.733 1168.94 643.746 1168.9 643.758 1168.85 643.77 1168.8 643.782 1168.75 643.793 1168.7 643.804 1168.65 643.815 1168.6 643.826 1168.55 643.836 1168.5 643.846 1168.46 643.855 1168.41 643.865 1168.36 643.874 1168.31 643.883 1168.26 643.891 1168.21 643.899 1168.16 643.907 1168.11 643.914 1168.06 643.922 1168.01 643.929 1167.96 643.935 1167.9 643.941 1167.85 643.947 1167.8 643.953 1167.75 643.958 1167.7 643.963 1167.65 643.968 1167.6 643.972 1167.55 643.977 1167.5 643.98 1167.45 643.984 1167.39 643.987 1167.34 643.99 1167.29 643.992 1167.24 643.994 1167.19 643.996 1167.14 643.997 1167.08 643.998 1167.03 643.999 1166.98 644 1166.93 644 1103.07 644 1103.02 644 1102.97 643.999 1102.92 643.998 1102.86 643.997 1102.81 643.996 1102.76 643.994 1102.71 643.992 1102.66 643.99 1102.61 643.987 1102.55 643.984 1102.5 643.98 1102.45 643.977 1102.4 643.972 1102.35 643.968 1102.3 643.963 1102.25 643.958 1102.2 643.953 1102.15 643.947 1102.1 643.941 1102.04 643.935 1101.99 643.929 1101.94 643.922 1101.89 643.914 1101.84 643.907 1101.79 643.899 1101.74 643.891 1101.69 643.883 1101.64 643.874 1101.59 643.865 1101.54 643.855 1101.5 643.846 1101.45 643.836 1101.4 643.826 1101.35 643.815 1101.3 643.804 1101.25 643.793 1101.2 643.782 1101.15 643.77 1101.1 643.758 1101.06 643.746 1101.01 643.733 1100.96 643.72 1100.91 643.707 1100.86 643.694 1100.82 643.68 1100.77 643.666 1100.72 643.651 1100.67 643.637 1100.63 643.622 1100.58 643.607 1100.53 643.591 1100.48 643.575 1100.44 643.559 1100.39 643.543 1100.34 643.527 1100.3 643.51 1100.25 643.493 1100.21 643.475 1100.16 643.458 1100.11 643.44 1100.07 643.422 1100.02 643.403 1099.98 643.384 1099.93 643.365 1099.89 643.346 1099.84 643.326 1099.8 643.307 1099.75 643.286 1099.71 643.266 1099.66 643.246 1099.62 643.225 1099.57 643.203 1099.53 643.182 1099.49 643.161 1099.44 643.138 1099.4 643.116 1099.36 643.094 1099.31 643.071 1099.27 643.048 1099.23 643.025 1099.18 643.002 1099.14 642.978 1099.1 642.954 1099.06 642.93 1099.01 642.905 1098.97 642.881 1098.93 642.856 1098.89 642.831 1098.85 642.805 1098.8 642.78 1098.76 642.754 1098.72 642.727 1098.68 642.701 1098.64 642.675 1098.6 642.648 1098.56 642.621 1098.52 642.593 1098.48 642.566 1098.44 642.538 1098.4 642.51 1098.36 642.482 1098.32 642.453 1098.28 642.425 1098.24 642.395 1098.21 642.366 1098.17 642.337 1098.13 642.307 1098.09 642.277 1098.05 642.247 1098.01 642.217 1097.98 642.186 1097.94 642.156 1097.9 642.125 1097.86 642.094 1097.83 642.062 1097.79 642.031 1097.75 641.999 1097.72 641.967 1097.68 641.934 1097.65 641.902 1097.61 641.869 1097.57 641.836 1097.54 641.803 1097.5 641.77 1097.47 641.737 1097.43 641.703 1097.4 641.669 1097.37 641.635 1097.33 641.6 1097.3 641.566 1097.26 641.531 1097.23 641.496 1097.2 641.461 1097.16 641.426 1097.13 641.39 1097.1 641.354 1097.07 641.318 1097.03 641.282 1097 641.246 1096.97 641.209 1096.94 641.173 1096.91 641.136 1096.88 641.098 1096.84 641.061 1096.81 641.024 1096.78 640.986 1096.75 640.948 1096.72 640.91 1096.69 640.872 1096.66 640.834 1096.63 640.795 1096.6 640.756 1096.58 640.717 1096.55 640.678 1096.52 640.639 1096.49 640.599 1096.46 640.56 1096.43 640.52 1096.41 640.48 1096.38 640.44 1096.35 640.399 1096.33 640.359 1096.3 640.318 1096.27 640.277 1096.25 640.236 1096.22 640.195 1096.19 640.154 1096.17 640.112 1096.14 640.071 1096.12 640.029 1096.09 639.987 1096.07 639.945 1096.05 639.902 1096.02 639.86 1096 639.817 1095.97 639.774 1095.95 639.731 1095.93 639.688 1095.91 639.645 1095.88 639.601 1095.86 639.558 1095.84 639.514 1095.82 639.47 1095.8 639.426 1095.78 639.382 1095.75 639.338 1095.73 639.293 1095.71 639.249 1095.69 639.204 1095.67 639.159 1095.65 639.114 1095.63 639.069 1095.62 639.023 1095.6 638.978 1095.58 638.932 1095.56 638.886 1095.54 638.841 1095.52 638.795 1095.51 638.749 1095.49 638.702 1095.47 638.656 1095.46 638.609 1095.44 638.562 1095.42 638.516 1095.41 638.469 1095.39 638.422 1095.38 638.374 1095.36 638.327 1095.35 638.28 1095.33 638.232 1095.32 638.185 1095.31 638.137 1095.29 638.089 1095.28 638.041 1095.27 637.993 1095.25 637.944 1095.24 637.896 1095.23 637.847 1095.22 637.799 1095.21 637.75 1095.2 637.701 1095.18 637.652 1095.17 637.603 1095.16 637.554 1095.15 637.505 1095.14 637.455 1095.14 637.406 1095.13 637.356 1095.12 637.306 1095.11 637.257 1095.1 637.206 1095.09 637.157 1095.09 637.106 1095.08 637.056 1095.07 637.006 1095.06 636.955 1095.06 636.905 1095.05 636.854 1095.05 636.803 1095.04 636.753 1095.04 636.702 1095.03 636.651 1095.03 636.6 1095.02 636.549 1095.02 636.497 1095.02 636.446 1095.01 636.394 1095.01 636.343 1095.01 636.291 1095.01 636.24 1095 636.188 1095 636.136 1095 636.084 1095 636.032 1095 635.98 1095 635.928 1095 572.072 1095 572.02 1095 571.968 1095 571.916 1095 571.864 1095 571.812 1095.01 571.76 1095.01 571.709 1095.01 571.657 1095.01 571.606 1095.02 571.554 1095.02 571.503 1095.02 571.451 1095.03 571.4 1095.03 571.349 1095.04 571.298 1095.04 571.247 1095.05 571.197 1095.05 571.146 1095.06 571.095 1095.06 571.045 1095.07 570.994 1095.08 570.944 1095.09 570.894 1095.09 570.843 1095.1 570.794 1095.11 570.743 1095.12 570.694 1095.13 570.644 1095.14 570.594 1095.14 570.545 1095.15 570.495 1095.16 570.446 1095.17 570.397 1095.18 570.348 1095.2 570.299 1095.21 570.25 1095.22 570.201 1095.23 570.153 1095.24 570.104 1095.25 570.056 1095.27 570.007 1095.28 569.959 1095.29 569.911 1095.31 569.863 1095.32 569.815 1095.33 569.768 1095.35 569.72 1095.36 569.673 1095.38 569.626 1095.39 569.578 1095.41 569.531 1095.42 569.484 1095.44 569.438 1095.46 569.391 1095.47 569.344 1095.49 569.298 1095.51 569.251 1095.52 569.205 1095.54 569.159 1095.56 569.114 1095.58 569.068 1095.6 569.022 1095.62 568.977 1095.63 568.931 1095.65 568.886 1095.67 568.841 1095.69 568.796 1095.71 568.751 1095.73 568.707 1095.75 568.662 1095.78 568.618 1095.8 568.574 1095.82 568.53 1095.84 568.486 1095.86 568.442 1095.88 568.399 1095.91 568.355 1095.93 568.312 1095.95 568.269 1095.97 568.226 1096 568.183 1096.02 568.14 1096.05 568.098 1096.07 568.055 1096.09 568.013 1096.12 567.971 1096.14 567.929 1096.17 567.888 1096.19 567.846 1096.22 567.805 1096.25 567.764 1096.27 567.723 1096.3 567.682 1096.33 567.641 1096.35 567.601 1096.38 567.56 1096.41 567.52 1096.43 567.48 1096.46 567.44 1096.49 567.401 1096.52 567.361 1096.55 567.322 1096.58 567.283 1096.6 567.244 1096.63 567.205 1096.66 567.166 1096.69 567.128 1096.72 567.09 1096.75 567.052 1096.78 567.014 1096.81 566.976 1096.84 566.939 1096.88 566.902 1096.91 566.864 1096.94 566.827 1096.97 566.791 1097 566.754 1097.03 566.718 1097.07 566.682 1097.1 566.646 1097.13 566.61 1097.16 566.574 1097.2 566.539 1097.23 566.504 1097.26 566.469 1097.3 566.434 1097.33 566.4 1097.37 566.365 1097.4 566.331 1097.43 566.297 1097.47 566.263 1097.5 566.23 1097.54 566.197 1097.57 566.164 1097.61 566.131 1097.65 566.098 1097.68 566.066 1097.72 566.033 1097.75 566.001 1097.79 565.969 1097.83 565.938 1097.86 565.906 1097.9 565.875 1097.94 565.844 1097.98 565.814 1098.01 565.783 1098.05 565.753 1098.09 565.723 1098.13 565.693 1098.17 565.663 1098.21 565.634 1098.24 565.605 1098.28 565.575 1098.32 565.547 1098.36 565.518 1098.4 565.49 1098.44 565.462 1098.48 565.434 1098.52 565.407 1098.56 565.379 1098.6 565.352 1098.64 565.325 1098.68 565.299 1098.72 565.273 1098.76 565.246 1098.8 565.22 1098.85 565.195 1098.89 565.169 1098.93 565.144 1098.97 565.119 1099.01 565.095 1099.06 565.07 1099.1 565.046 1099.14 565.022 1099.18 564.998 1099.23 564.975 1099.27 564.952 1099.31 564.929 1099.36 564.906 1099.4 564.884 1099.44 564.862 1099.49 564.839 1099.53 564.818 1099.57 564.797 1099.62 564.775 1099.66 564.754 1099.71 564.734 1099.75 564.714 1099.8 564.693 1099.84 564.674 1099.89 564.654 1099.93 564.635 1099.98 564.616 1100.02 564.597 1100.07 564.578 1100.11 564.56 1100.16 564.542 1100.21 564.525 1100.25 564.507 1100.3 564.49 1100.34 564.473 1100.39 564.457 1100.44 564.441 1100.48 564.425 1100.53 564.409 1100.58 564.393 1100.63 564.378 1100.67 564.363 1100.72 564.349 1100.77 564.334 1100.82 564.32 1100.86 564.306 1100.91 564.293 1100.96 564.28 1101.01 564.267 1101.06 564.254 1101.1 564.242 1101.15 564.23 1101.2 564.218 1101.25 564.207 1101.3 564.196 1101.35 564.185 1101.4 564.174 1101.45 564.164 1101.5 564.154 1101.54 564.145 1101.59 564.135 1101.64 564.126 1101.69 564.117 1101.74 564.109 1101.79 564.101 1101.84 564.093 1101.89 564.086 1101.94 564.078 1101.99 564.071 1102.04 564.065 1102.1 564.059 1102.15 564.053 1102.2 564.047 1102.25 564.042 1102.3 564.037 1102.35 564.032 1102.4 564.028 1102.45 564.023 1102.5 564.02 1102.55 564.016 1102.61 564.013 1102.66 564.01 1102.71 564.008 1102.76 564.006 1102.81 564.004 1102.86 564.003 1102.92 564.002 1102.97 564.001 1103.02 564 1103.07 564 1166.93 564 1166.98 564ZM1103.08 568.267 1103.05 568.267 1103.02 568.267 1103 568.267 1102.97 568.268 1102.95 568.269 1102.92 568.27 1102.9 568.271 1102.87 568.272 1102.85 568.273 1102.82 568.274 1102.8 568.276 1102.78 568.278 1102.75 568.28 1102.73 568.282 1102.7 568.284 1102.68 568.286 1102.65 568.289 1102.63 568.292 1102.61 568.294 1102.58 568.297 1102.56 568.301 1102.54 568.304 1102.51 568.307 1102.49 568.311 1102.47 568.314 1102.44 568.318 1102.42 568.322 1102.4 568.326 1102.37 568.33 1102.35 568.335 1102.33 568.339 1102.3 568.344 1102.28 568.349 1102.26 568.354 1102.23 568.359 1102.21 568.364 1102.19 568.369 1102.17 568.375 1102.14 568.381 1102.12 568.386 1102.1 568.392 1102.07 568.398 1102.05 568.404 1102.03 568.41 1102.01 568.417 1101.99 568.423 1101.96 568.43 1101.94 568.437 1101.92 568.444 1101.9 568.451 1101.87 568.458 1101.85 568.466 1101.83 568.473 1101.81 568.481 1101.79 568.489 1101.77 568.496 1101.74 568.504 1101.72 568.513 1101.7 568.521 1101.68 568.529 1101.66 568.538 1101.64 568.546 1101.62 568.555 1101.59 568.564 1101.57 568.573 1101.55 568.582 1101.53 568.591 1101.51 568.601 1101.49 568.61 1101.47 568.62 1101.45 568.63 1101.43 568.64 1101.41 568.65 1101.39 568.66 1101.37 568.67 1101.34 568.681 1101.32 568.691 1101.3 568.702 1101.28 568.713 1101.26 568.724 1101.24 568.735 1101.22 568.746 1101.2 568.757 1101.18 568.769 1101.16 568.78 1101.14 568.792 1101.12 568.803 1101.1 568.815 1101.08 568.827 1101.07 568.839 1101.05 568.851 1101.03 568.864 1101.01 568.876 1100.99 568.889 1100.97 568.902 1100.95 568.914 1100.93 568.927 1100.91 568.941 1100.89 568.954 1100.87 568.967 1100.86 568.98 1100.84 568.994 1100.82 569.007 1100.8 569.021 1100.78 569.035 1100.76 569.049 1100.74 569.063 1100.73 569.077 1100.71 569.091 1100.69 569.106 1100.67 569.12 1100.65 569.135 1100.64 569.15 1100.62 569.164 1100.6 569.179 1100.58 569.194 1100.57 569.209 1100.55 569.225 1100.53 569.24 1100.52 569.255 1100.5 569.271 1100.48 569.286 1100.47 569.302 1100.45 569.318 1100.43 569.334 1100.42 569.35 1100.4 569.366 1100.38 569.382 1100.37 569.399 1100.35 569.415 1100.33 569.432 1100.32 569.448 1100.3 569.465 1100.29 569.482 1100.27 569.499 1100.26 569.516 1100.24 569.533 1100.22 569.55 1100.21 569.567 1100.19 569.585 1100.18 569.602 1100.16 569.619 1100.15 569.637 1100.13 569.655 1100.12 569.673 1100.11 569.69 1100.09 569.709 1100.08 569.726 1100.06 569.745 1100.05 569.763 1100.03 569.781 1100.02 569.799 1100.01 569.818 1099.99 569.837 1099.98 569.855 1099.97 569.874 1099.95 569.893 1099.94 569.911 1099.93 569.93 1099.91 569.949 1099.9 569.969 1099.89 569.987 1099.88 570.007 1099.86 570.026 1099.85 570.046 1099.84 570.065 1099.83 570.085 1099.82 570.104 1099.8 570.124 1099.79 570.143 1099.78 570.163 1099.77 570.183 1099.76 570.203 1099.75 570.223 1099.73 570.243 1099.72 570.263 1099.71 570.283 1099.7 570.304 1099.69 570.324 1099.68 570.345 1099.67 570.365 1099.66 570.386 1099.65 570.406 1099.64 570.427 1099.63 570.448 1099.62 570.469 1099.61 570.489 1099.6 570.51 1099.59 570.531 1099.58 570.552 1099.57 570.573 1099.56 570.594 1099.56 570.616 1099.55 570.637 1099.54 570.658 1099.53 570.68 1099.52 570.701 1099.51 570.723 1099.5 570.744 1099.5 570.766 1099.49 570.788 1099.48 570.809 1099.47 570.831 1099.47 570.853 1099.46 570.875 1099.45 570.897 1099.44 570.919 1099.44 570.941 1099.43 570.963 1099.42 570.985 1099.42 571.008 1099.41 571.03 1099.4 571.053 1099.4 571.075 1099.39 571.097 1099.39 571.12 1099.38 571.143 1099.37 571.165 1099.37 571.188 1099.36 571.211 1099.36 571.234 1099.35 571.257 1099.35 571.279 1099.34 571.302 1099.34 571.326 1099.33 571.349 1099.33 571.372 1099.33 571.395 1099.32 571.418 1099.32 571.442 1099.31 571.465 1099.31 571.489 1099.31 571.512 1099.3 571.536 1099.3 571.559 1099.3 571.583 1099.29 571.607 1099.29 571.631 1099.29 571.655 1099.29 571.679 1099.28 571.703 1099.28 571.727 1099.28 571.751 1099.28 571.776 1099.28 571.8 1099.27 571.824 1099.27 571.849 1099.27 571.873 1099.27 571.898 1099.27 571.923 1099.27 571.947 1099.27 571.972 1099.27 571.997 1099.27 572.022 1099.27 572.047 1099.27 572.079 1099.27 635.921 1099.27 635.953 1099.27 635.978 1099.27 636.003 1099.27 636.028 1099.27 636.053 1099.27 636.077 1099.27 636.102 1099.27 636.127 1099.27 636.151 1099.27 636.176 1099.28 636.2 1099.28 636.224 1099.28 636.249 1099.28 636.273 1099.28 636.297 1099.29 636.321 1099.29 636.345 1099.29 636.369 1099.29 636.393 1099.3 636.417 1099.3 636.441 1099.3 636.464 1099.31 636.488 1099.31 636.511 1099.31 636.535 1099.32 636.558 1099.32 636.582 1099.33 636.605 1099.33 636.628 1099.33 636.651 1099.34 636.674 1099.34 636.698 1099.35 636.721 1099.35 636.743 1099.36 636.766 1099.36 636.789 1099.37 636.812 1099.37 636.835 1099.38 636.858 1099.39 636.88 1099.39 636.903 1099.4 636.925 1099.4 636.947 1099.41 636.97 1099.42 636.992 1099.42 637.015 1099.43 637.037 1099.44 637.059 1099.44 637.081 1099.45 637.103 1099.46 637.125 1099.47 637.147 1099.47 637.169 1099.48 637.191 1099.49 637.212 1099.5 637.234 1099.5 637.256 1099.51 637.277 1099.52 637.299 1099.53 637.32 1099.54 637.342 1099.55 637.363 1099.56 637.384 1099.56 637.406 1099.57 637.427 1099.58 637.448 1099.59 637.469 1099.6 637.49 1099.61 637.511 1099.62 637.531 1099.63 637.552 1099.64 637.573 1099.65 637.594 1099.66 637.614 1099.67 637.635 1099.68 637.655 1099.69 637.676 1099.7 637.696 1099.71 637.716 1099.72 637.737 1099.73 637.757 1099.75 637.777 1099.76 637.797 1099.77 637.817 1099.78 637.837 1099.79 637.857 1099.8 637.876 1099.82 637.896 1099.83 637.915 1099.84 637.935 1099.85 637.955 1099.86 637.974 1099.88 637.993 1099.89 638.013 1099.9 638.032 1099.91 638.051 1099.93 638.07 1099.94 638.089 1099.95 638.107 1099.97 638.126 1099.98 638.145 1099.99 638.163 1100.01 638.182 1100.02 638.201 1100.03 638.219 1100.05 638.237 1100.06 638.255 1100.08 638.274 1100.09 638.291 1100.11 638.31 1100.12 638.327 1100.13 638.345 1100.15 638.363 1100.16 638.381 1100.18 638.398 1100.19 638.415 1100.21 638.433 1100.22 638.45 1100.24 638.467 1100.26 638.484 1100.27 638.501 1100.29 638.518 1100.3 638.535 1100.32 638.551 1100.33 638.569 1100.35 638.585 1100.37 638.601 1100.38 638.618 1100.4 638.634 1100.42 638.65 1100.43 638.666 1100.45 638.682 1100.47 638.698 1100.48 638.714 1100.5 638.729 1100.52 638.745 1100.53 638.76 1100.55 638.775 1100.57 638.791 1100.58 638.806 1100.6 638.821 1100.62 638.836 1100.64 638.85 1100.65 638.865 1100.67 638.88 1100.69 638.894 1100.71 638.909 1100.73 638.923 1100.74 638.937 1100.76 638.951 1100.78 638.965 1100.8 638.979 1100.82 638.993 1100.84 639.006 1100.86 639.02 1100.87 639.033 1100.89 639.046 1100.91 639.06 1100.93 639.073 1100.95 639.086 1100.97 639.098 1100.99 639.111 1101.01 639.124 1101.03 639.136 1101.05 639.148 1101.06 639.161 1101.08 639.173 1101.1 639.185 1101.12 639.197 1101.14 639.209 1101.16 639.22 1101.18 639.231 1101.2 639.243 1101.22 639.254 1101.24 639.265 1101.26 639.276 1101.28 639.287 1101.3 639.298 1101.32 639.309 1101.34 639.319 1101.37 639.33 1101.39 639.34 1101.41 639.35 1101.43 639.36 1101.45 639.37 1101.47 639.38 1101.49 639.39 1101.51 639.399 1101.53 639.409 1101.55 639.418 1101.57 639.427 1101.59 639.436 1101.62 639.445 1101.64 639.454 1101.66 639.462 1101.68 639.471 1101.7 639.479 1101.72 639.487 1101.74 639.496 1101.77 639.504 1101.79 639.511 1101.81 639.519 1101.83 639.527 1101.85 639.534 1101.87 639.542 1101.9 639.549 1101.92 639.556 1101.94 639.563 1101.96 639.57 1101.99 639.577 1102.01 639.583 1102.03 639.589 1102.05 639.596 1102.07 639.602 1102.1 639.608 1102.12 639.614 1102.14 639.62 1102.17 639.625 1102.19 639.631 1102.21 639.636 1102.23 639.641 1102.26 639.646 1102.28 639.651 1102.3 639.656 1102.33 639.661 1102.35 639.665 1102.37 639.67 1102.4 639.674 1102.42 639.678 1102.44 639.682 1102.47 639.686 1102.49 639.689 1102.51 639.693 1102.54 639.696 1102.56 639.699 1102.58 639.703 1102.61 639.706 1102.63 639.708 1102.65 639.711 1102.68 639.714 1102.7 639.716 1102.73 639.718 1102.75 639.72 1102.78 639.722 1102.8 639.724 1102.82 639.726 1102.85 639.727 1102.87 639.728 1102.9 639.729 1102.92 639.73 1102.95 639.731 1102.97 639.732 1103 639.733 1103.02 639.733 1103.05 639.733 1103.08 639.733 1166.92 639.733 1166.95 639.733 1166.98 639.733 1167 639.733 1167.03 639.732 1167.05 639.731 1167.08 639.73 1167.1 639.729 1167.13 639.728 1167.15 639.727 1167.18 639.726 1167.2 639.724 1167.22 639.722 1167.25 639.72 1167.27 639.718 1167.3 639.716 1167.32 639.714 1167.35 639.711 1167.37 639.708 1167.39 639.706 1167.42 639.703 1167.44 639.699 1167.46 639.696 1167.49 639.693 1167.51 639.689 1167.53 639.686 1167.56 639.682 1167.58 639.678 1167.6 639.674 1167.63 639.67 1167.65 639.665 1167.67 639.661 1167.7 639.656 1167.72 639.651 1167.74 639.646 1167.77 639.641 1167.79 639.636 1167.81 639.631 1167.83 639.625 1167.86 639.62 1167.88 639.614 1167.9 639.608 1167.93 639.602 1167.95 639.596 1167.97 639.589 1167.99 639.583 1168.01 639.577 1168.04 639.57 1168.06 639.563 1168.08 639.556 1168.1 639.549 1168.13 639.542 1168.15 639.534 1168.17 639.527 1168.19 639.519 1168.21 639.511 1168.23 639.504 1168.26 639.496 1168.28 639.487 1168.3 639.479 1168.32 639.471 1168.34 639.462 1168.36 639.454 1168.38 639.445 1168.41 639.436 1168.43 639.427 1168.45 639.418 1168.47 639.409 1168.49 639.399 1168.51 639.39 1168.53 639.38 1168.55 639.37 1168.57 639.36 1168.59 639.35 1168.61 639.34 1168.63 639.33 1168.66 639.319 1168.68 639.309 1168.7 639.298 1168.72 639.287 1168.74 639.277 1168.76 639.265 1168.78 639.254 1168.8 639.243 1168.82 639.231 1168.84 639.22 1168.86 639.209 1168.88 639.197 1168.9 639.185 1168.92 639.173 1168.93 639.161 1168.95 639.148 1168.97 639.136 1168.99 639.124 1169.01 639.111 1169.03 639.098 1169.05 639.086 1169.07 639.073 1169.09 639.06 1169.11 639.046 1169.13 639.033 1169.15 639.02 1169.16 639.006 1169.18 638.993 1169.2 638.979 1169.22 638.965 1169.24 638.951 1169.26 638.937 1169.27 638.923 1169.29 638.909 1169.31 638.894 1169.33 638.88 1169.35 638.865 1169.36 638.851 1169.38 638.835 1169.4 638.821 1169.42 638.806 1169.43 638.791 1169.45 638.775 1169.47 638.76 1169.48 638.745 1169.5 638.729 1169.52 638.713 1169.53 638.698 1169.55 638.682 1169.57 638.666 1169.58 638.65 1169.6 638.634 1169.62 638.618 1169.63 638.601 1169.65 638.585 1169.67 638.569 1169.68 638.552 1169.7 638.535 1169.71 638.518 1169.73 638.501 1169.74 638.484 1169.76 638.467 1169.78 638.45 1169.79 638.433 1169.81 638.415 1169.82 638.398 1169.84 638.381 1169.85 638.363 1169.87 638.345 1169.88 638.327 1169.89 638.309 1169.91 638.291 1169.92 638.274 1169.94 638.255 1169.95 638.237 1169.96 638.219 1169.98 638.201 1169.99 638.182 1170.01 638.164 1170.02 638.145 1170.03 638.126 1170.05 638.107 1170.06 638.088 1170.07 638.07 1170.09 638.051 1170.1 638.032 1170.11 638.013 1170.12 637.993 1170.14 637.974 1170.15 637.955 1170.16 637.935 1170.17 637.915 1170.18 637.896 1170.2 637.876 1170.21 637.857 1170.22 637.837 1170.23 637.817 1170.24 637.797 1170.25 637.777 1170.27 637.757 1170.28 637.737 1170.29 637.716 1170.3 637.696 1170.31 637.676 1170.32 637.655 1170.33 637.635 1170.34 637.614 1170.35 637.594 1170.36 637.573 1170.37 637.553 1170.38 637.532 1170.39 637.511 1170.4 637.49 1170.41 637.469 1170.42 637.448 1170.43 637.427 1170.44 637.406 1170.45 637.384 1170.45 637.363 1170.46 637.342 1170.47 637.32 1170.48 637.299 1170.49 637.277 1170.5 637.256 1170.5 637.234 1170.51 637.212 1170.52 637.191 1170.53 637.169 1170.53 637.147 1170.54 637.125 1170.55 637.103 1170.56 637.081 1170.56 637.059 1170.57 637.037 1170.58 637.014 1170.58 636.993 1170.59 636.97 1170.6 636.947 1170.6 636.925 1170.61 636.903 1170.61 636.88 1170.62 636.857 1170.63 636.835 1170.63 636.812 1170.64 636.789 1170.64 636.767 1170.65 636.743 1170.65 636.721 1170.66 636.698 1170.66 636.675 1170.67 636.651 1170.67 636.628 1170.67 636.605 1170.68 636.582 1170.68 636.558 1170.69 636.535 1170.69 636.511 1170.69 636.488 1170.7 636.464 1170.7 636.44 1170.7 636.417 1170.71 636.393 1170.71 636.369 1170.71 636.345 1170.71 636.321 1170.72 636.297 1170.72 636.273 1170.72 636.249 1170.72 636.224 1170.72 636.2 1170.73 636.175 1170.73 636.151 1170.73 636.127 1170.73 636.102 1170.73 636.077 1170.73 636.053 1170.73 636.028 1170.73 636.003 1170.73 635.978 1170.73 635.953 1170.73 635.921 1170.73 572.079 1170.73 572.047 1170.73 572.022 1170.73 571.997 1170.73 571.972 1170.73 571.947 1170.73 571.923 1170.73 571.898 1170.73 571.873 1170.73 571.849 1170.73 571.825 1170.72 571.8 1170.72 571.776 1170.72 571.751 1170.72 571.727 1170.72 571.703 1170.71 571.679 1170.71 571.655 1170.71 571.631 1170.71 571.607 1170.7 571.583 1170.7 571.56 1170.7 571.536 1170.69 571.512 1170.69 571.489 1170.69 571.465 1170.68 571.442 1170.68 571.418 1170.67 571.395 1170.67 571.372 1170.67 571.349 1170.66 571.325 1170.66 571.302 1170.65 571.279 1170.65 571.257 1170.64 571.233 1170.64 571.211 1170.63 571.188 1170.63 571.165 1170.62 571.143 1170.61 571.12 1170.61 571.097 1170.6 571.075 1170.6 571.053 1170.59 571.03 1170.58 571.007 1170.58 570.986 1170.57 570.963 1170.56 570.941 1170.56 570.919 1170.55 570.897 1170.54 570.875 1170.53 570.853 1170.53 570.831 1170.52 570.809 1170.51 570.788 1170.5 570.766 1170.5 570.744 1170.49 570.723 1170.48 570.701 1170.47 570.68 1170.46 570.658 1170.45 570.637 1170.45 570.616 1170.44 570.594 1170.43 570.573 1170.42 570.552 1170.41 570.531 1170.4 570.51 1170.39 570.489 1170.38 570.468 1170.37 570.447 1170.36 570.427 1170.35 570.406 1170.34 570.386 1170.33 570.365 1170.32 570.345 1170.31 570.324 1170.3 570.304 1170.29 570.283 1170.28 570.263 1170.27 570.243 1170.25 570.223 1170.24 570.203 1170.23 570.183 1170.22 570.163 1170.21 570.143 1170.2 570.124 1170.18 570.104 1170.17 570.085 1170.16 570.065 1170.15 570.045 1170.14 570.026 1170.12 570.007 1170.11 569.988 1170.1 569.968 1170.09 569.949 1170.07 569.93 1170.06 569.911 1170.05 569.893 1170.03 569.874 1170.02 569.855 1170.01 569.836 1169.99 569.818 1169.98 569.799 1169.97 569.781 1169.95 569.763 1169.94 569.745 1169.92 569.726 1169.91 569.709 1169.89 569.691 1169.88 569.673 1169.87 569.655 1169.85 569.637 1169.84 569.619 1169.82 569.602 1169.81 569.585 1169.79 569.567 1169.78 569.55 1169.76 569.533 1169.74 569.516 1169.73 569.499 1169.71 569.482 1169.7 569.465 1169.68 569.448 1169.67 569.431 1169.65 569.415 1169.63 569.399 1169.62 569.382 1169.6 569.366 1169.58 569.35 1169.57 569.334 1169.55 569.318 1169.53 569.302 1169.52 569.287 1169.5 569.271 1169.48 569.255 1169.47 569.24 1169.45 569.225 1169.43 569.209 1169.42 569.194 1169.4 569.179 1169.38 569.164 1169.36 569.149 1169.35 569.135 1169.33 569.12 1169.31 569.106 1169.29 569.091 1169.27 569.077 1169.26 569.063 1169.24 569.049 1169.22 569.035 1169.2 569.021 1169.18 569.007 1169.16 568.994 1169.15 568.98 1169.13 568.967 1169.11 568.954 1169.09 568.94 1169.07 568.927 1169.05 568.914 1169.03 568.902 1169.01 568.889 1168.99 568.876 1168.97 568.864 1168.95 568.852 1168.93 568.839 1168.92 568.827 1168.9 568.815 1168.88 568.803 1168.86 568.792 1168.84 568.78 1168.82 568.769 1168.8 568.757 1168.78 568.746 1168.76 568.735 1168.74 568.723 1168.72 568.713 1168.7 568.702 1168.68 568.691 1168.66 568.681 1168.63 568.67 1168.61 568.66 1168.59 568.65 1168.57 568.64 1168.55 568.63 1168.53 568.62 1168.51 568.61 1168.49 568.601 1168.47 568.591 1168.45 568.582 1168.43 568.573 1168.41 568.564 1168.38 568.555 1168.36 568.546 1168.34 568.538 1168.32 568.529 1168.3 568.521 1168.28 568.513 1168.26 568.504 1168.23 568.496 1168.21 568.489 1168.19 568.481 1168.17 568.473 1168.15 568.466 1168.13 568.458 1168.1 568.451 1168.08 568.444 1168.06 568.437 1168.04 568.43 1168.01 568.423 1167.99 568.417 1167.97 568.41 1167.95 568.404 1167.93 568.398 1167.9 568.392 1167.88 568.386 1167.86 568.381 1167.83 568.375 1167.81 568.369 1167.79 568.364 1167.77 568.359 1167.74 568.354 1167.72 568.349 1167.7 568.344 1167.67 568.339 1167.65 568.335 1167.63 568.33 1167.6 568.326 1167.58 568.322 1167.56 568.318 1167.53 568.314 1167.51 568.311 1167.49 568.307 1167.46 568.304 1167.44 568.301 1167.42 568.297 1167.39 568.294 1167.37 568.292 1167.35 568.289 1167.32 568.286 1167.3 568.284 1167.27 568.282 1167.25 568.28 1167.22 568.278 1167.2 568.276 1167.18 568.274 1167.15 568.273 1167.13 568.272 1167.1 568.271 1167.08 568.27 1167.05 568.269 1167.03 568.268 1167 568.267 1166.98 568.267 1166.95 568.267 1166.92 568.267 1103.08 568.267Z" fill="#232253" fill-rule="evenodd"/><path d="M64.3984 22.9093C64.9301 22.9093 65.3619 23.3413 65.3619 23.8731L65.3619 31.5816C65.3619 32.1136 64.9301 32.5453 64.3984 32.5453L15.6016 32.5453C15.0699 32.5453 14.6381 32.1136 14.6381 31.5816L14.6381 23.8731C14.6381 23.3413 15.0699 22.9093 15.6016 22.9093L64.3984 22.9093ZM29.9741 26.0056 27.0157 26.0056C26.8256 26.0056 26.6712 26.16 26.6712 26.3501L26.6712 29.1048C26.6712 29.2947 26.8256 29.4491 27.0157 29.4491L29.9741 29.4491C30.1643 29.4491 30.3184 29.2947 30.3184 29.1048L30.3184 26.3501C30.3184 26.16 30.1643 26.0056 29.9741 26.0056ZM61.0117 26.0056 45.6707 26.0056C45.4805 26.0056 45.3264 26.16 45.3264 26.3501L45.3264 29.1048C45.3264 29.2947 45.4805 29.4491 45.6707 29.4491L61.0117 29.4491C61.2019 29.4491 61.356 29.2947 61.356 29.1048L61.356 26.3501C61.356 26.16 61.2019 26.0056 61.0117 26.0056ZM23.5515 26.0056 20.5931 26.0056C20.4029 26.0056 20.2488 26.16 20.2488 26.3501L20.2488 29.1048C20.2488 29.2947 20.4029 29.4491 20.5931 29.4491L23.5515 29.4491C23.7416 29.4491 23.896 29.2947 23.896 29.1048L23.896 26.3501C23.896 26.16 23.7416 26.0056 23.5515 26.0056Z" fill="#232253" fill-rule="evenodd" transform="matrix(1.05166 0 0 1 1092.93 562.931)"/><path d="M64.3984 22.9093C64.9301 22.9093 65.3619 23.3413 65.3619 23.8731L65.3619 31.5816C65.3619 32.1136 64.9301 32.5453 64.3984 32.5453L15.6016 32.5453C15.0699 32.5453 14.6381 32.1136 14.6381 31.5816L14.6381 23.8731C14.6381 23.3413 15.0699 22.9093 15.6016 22.9093L64.3984 22.9093ZM29.9741 26.0056 27.0157 26.0056C26.8256 26.0056 26.6712 26.16 26.6712 26.3501L26.6712 29.1048C26.6712 29.2947 26.8256 29.4491 27.0157 29.4491L29.9741 29.4491C30.1643 29.4491 30.3184 29.2947 30.3184 29.1048L30.3184 26.3501C30.3184 26.16 30.1643 26.0056 29.9741 26.0056ZM61.0117 26.0056 45.6707 26.0056C45.4805 26.0056 45.3264 26.16 45.3264 26.3501L45.3264 29.1048C45.3264 29.2947 45.4805 29.4491 45.6707 29.4491L61.0117 29.4491C61.2019 29.4491 61.356 29.2947 61.356 29.1048L61.356 26.3501C61.356 26.16 61.2019 26.0056 61.0117 26.0056ZM23.5515 26.0056 20.5931 26.0056C20.4029 26.0056 20.2488 26.16 20.2488 26.3501L20.2488 29.1048C20.2488 29.2947 20.4029 29.4491 20.5931 29.4491L23.5515 29.4491C23.7416 29.4491 23.896 29.2947 23.896 29.1048L23.896 26.3501C23.896 26.16 23.7416 26.0056 23.5515 26.0056Z" fill="#232253" fill-rule="evenodd" transform="matrix(1.05166 0 0 1 1092.93 589.615)"/><path d="M64.3984 22.9093C64.9301 22.9093 65.3619 23.3413 65.3619 23.8731L65.3619 31.5816C65.3619 32.1136 64.9301 32.5453 64.3984 32.5453L15.6016 32.5453C15.0699 32.5453 14.6381 32.1136 14.6381 31.5816L14.6381 23.8731C14.6381 23.3413 15.0699 22.9093 15.6016 22.9093L64.3984 22.9093ZM29.9741 26.0056 27.0157 26.0056C26.8256 26.0056 26.6712 26.16 26.6712 26.3501L26.6712 29.1048C26.6712 29.2947 26.8256 29.4491 27.0157 29.4491L29.9741 29.4491C30.1643 29.4491 30.3184 29.2947 30.3184 29.1048L30.3184 26.3501C30.3184 26.16 30.1643 26.0056 29.9741 26.0056ZM61.0117 26.0056 45.6707 26.0056C45.4805 26.0056 45.3264 26.16 45.3264 26.3501L45.3264 29.1048C45.3264 29.2947 45.4805 29.4491 45.6707 29.4491L61.0117 29.4491C61.2019 29.4491 61.356 29.2947 61.356 29.1048L61.356 26.3501C61.356 26.16 61.2019 26.0056 61.0117 26.0056ZM23.5515 26.0056 20.5931 26.0056C20.4029 26.0056 20.2488 26.16 20.2488 26.3501L20.2488 29.1048C20.2488 29.2947 20.4029 29.4491 20.5931 29.4491L23.5515 29.4491C23.7416 29.4491 23.896 29.2947 23.896 29.1048L23.896 26.3501C23.896 26.16 23.7416 26.0056 23.5515 26.0056Z" fill="#232253" fill-rule="evenodd" transform="matrix(1.05166 0 0 1 1092.93 576.273)"/></g></g></g><text fill="#232253" font-family="Open Sans SemiBold,Open Sans SemiBold_MSFontService,Arial" font-weight="600" font-size="24" transform="translate(1060.95 519)">Heavy <tspan font-size="24" x="77.6667" y="0">traffic</tspan><tspan font-size="24" x="9.16675" y="28">IPv4 Server</tspan></text><rect x="37" y="6" width="1198" height="68" stroke="#232253" stroke-width="2" stroke-linejoin="round" stroke-miterlimit="10" fill="none"/><text fill="#232253" font-family="Open Sans SemiBold,Open Sans SemiBold_MSFontService,Arial" font-style="italic" font-weight="600" font-size="24" transform="translate(50.4275 34)">When users reach the IPv4 server, they use a DNS64 auto<tspan font-size="24" x="621.833" y="0">-</tspan>synthesized record. Translation is done according <tspan font-size="24" x="457.5" y="28">to the chosen topology.</tspan></text><path d="M272 204.25 616.5 204.25 616.5 191 643 217.5 616.5 244 616.5 230.75 272 230.75Z" fill="#EE5557" fill-rule="evenodd"/><text fill="#FFFFFF" font-family="Open Sans SemiBold,Open Sans SemiBold_MSFontService,Arial" font-weight="600" font-size="21" transform="translate(429.315 225)">IPv6</text><g clip-path="url(#clip7)"><g clip-path="url(#clip8)"><g clip-path="url(#clip9)"><path d="M1177 311.173C1177 306.662 1173.34 303 1168.83 303L1104.17 303C1099.66 303 1096 306.662 1096 311.173L1096 375.827C1096 380.338 1099.66 384 1104.17 384L1168.83 384C1173.34 384 1177 380.338 1177 375.827L1177 311.173Z" fill="#FFFEFE" fill-rule="evenodd"/><path d="M1168.88 303 1168.93 303.001 1168.99 303.002 1169.04 303.003 1169.09 303.004 1169.14 303.006 1169.2 303.008 1169.25 303.011 1169.3 303.013 1169.35 303.016 1169.4 303.02 1169.46 303.024 1169.51 303.028 1169.56 303.032 1169.61 303.037 1169.66 303.042 1169.71 303.048 1169.76 303.053 1169.82 303.059 1169.87 303.066 1169.92 303.072 1169.97 303.079 1170.02 303.087 1170.07 303.094 1170.12 303.102 1170.17 303.11 1170.22 303.119 1170.27 303.128 1170.32 303.137 1170.37 303.146 1170.42 303.156 1170.47 303.166 1170.52 303.177 1170.57 303.187 1170.62 303.198 1170.67 303.21 1170.72 303.221 1170.77 303.233 1170.82 303.245 1170.87 303.258 1170.92 303.27 1170.97 303.283 1171.01 303.297 1171.06 303.31 1171.11 303.324 1171.16 303.338 1171.21 303.353 1171.26 303.368 1171.3 303.383 1171.35 303.398 1171.4 303.414 1171.45 303.43 1171.49 303.446 1171.54 303.463 1171.59 303.479 1171.64 303.496 1171.68 303.514 1171.73 303.531 1171.78 303.549 1171.82 303.567 1171.87 303.586 1171.92 303.605 1171.96 303.623 1172.01 303.643 1172.05 303.662 1172.1 303.682 1172.14 303.702 1172.19 303.723 1172.23 303.743 1172.28 303.764 1172.32 303.785 1172.37 303.806 1172.41 303.828 1172.46 303.85 1172.5 303.872 1172.55 303.895 1172.59 303.917 1172.63 303.94 1172.68 303.964 1172.72 303.987 1172.76 304.011 1172.81 304.035 1172.85 304.059 1172.89 304.083 1172.94 304.108 1172.98 304.133 1173.02 304.159 1173.06 304.184 1173.11 304.21 1173.15 304.236 1173.19 304.262 1173.23 304.288 1173.27 304.315 1173.31 304.342 1173.35 304.369 1173.4 304.397 1173.44 304.424 1173.48 304.452 1173.52 304.48 1173.56 304.509 1173.6 304.537 1173.64 304.566 1173.68 304.595 1173.72 304.625 1173.75 304.654 1173.79 304.684 1173.83 304.714 1173.87 304.744 1173.91 304.775 1173.95 304.805 1173.99 304.836 1174.02 304.867 1174.06 304.899 1174.1 304.93 1174.14 304.962 1174.17 304.994 1174.21 305.026 1174.25 305.059 1174.28 305.091 1174.32 305.124 1174.36 305.157 1174.39 305.191 1174.43 305.224 1174.46 305.258 1174.5 305.292 1174.54 305.326 1174.57 305.36 1174.61 305.395 1174.64 305.43 1174.67 305.465 1174.71 305.5 1174.74 305.535 1174.78 305.571 1174.81 305.607 1174.84 305.643 1174.88 305.679 1174.91 305.715 1174.94 305.752 1174.97 305.789 1175.01 305.826 1175.04 305.863 1175.07 305.9 1175.1 305.938 1175.13 305.975 1175.16 306.013 1175.19 306.052 1175.23 306.09 1175.26 306.128 1175.29 306.167 1175.32 306.206 1175.35 306.245 1175.38 306.284 1175.4 306.324 1175.43 306.363 1175.46 306.403 1175.49 306.443 1175.52 306.483 1175.55 306.523 1175.58 306.564 1175.6 306.605 1175.63 306.646 1175.66 306.687 1175.68 306.728 1175.71 306.769 1175.74 306.811 1175.76 306.852 1175.79 306.894 1175.82 306.936 1175.84 306.978 1175.87 307.021 1175.89 307.064 1175.92 307.106 1175.94 307.149 1175.97 307.192 1175.99 307.235 1176.01 307.279 1176.04 307.322 1176.06 307.366 1176.08 307.41 1176.11 307.454 1176.13 307.498 1176.15 307.542 1176.17 307.586 1176.19 307.631 1176.21 307.676 1176.24 307.721 1176.26 307.766 1176.28 307.811 1176.3 307.856 1176.32 307.902 1176.34 307.947 1176.36 307.993 1176.38 308.039 1176.4 308.085 1176.41 308.131 1176.43 308.178 1176.45 308.224 1176.47 308.27 1176.49 308.317 1176.5 308.364 1176.52 308.411 1176.54 308.458 1176.55 308.506 1176.57 308.553 1176.59 308.6 1176.6 308.648 1176.62 308.696 1176.63 308.744 1176.65 308.792 1176.66 308.84 1176.68 308.888 1176.69 308.937 1176.7 308.985 1176.72 309.034 1176.73 309.083 1176.74 309.131 1176.75 309.181 1176.77 309.23 1176.78 309.279 1176.79 309.328 1176.8 309.378 1176.81 309.427 1176.82 309.477 1176.83 309.527 1176.84 309.577 1176.85 309.627 1176.86 309.677 1176.87 309.727 1176.88 309.778 1176.89 309.828 1176.9 309.879 1176.91 309.929 1176.91 309.98 1176.92 310.031 1176.93 310.082 1176.93 310.133 1176.94 310.184 1176.95 310.235 1176.95 310.286 1176.96 310.338 1176.96 310.389 1176.97 310.441 1176.97 310.493 1176.98 310.545 1176.98 310.596 1176.98 310.649 1176.99 310.701 1176.99 310.753 1176.99 310.805 1176.99 310.857 1177 310.91 1177 310.962 1177 311.015 1177 311.068 1177 311.12 1177 311.173 1177 375.827 1177 375.88 1177 375.932 1177 375.985 1177 376.038 1177 376.09 1176.99 376.143 1176.99 376.195 1176.99 376.247 1176.99 376.299 1176.98 376.351 1176.98 376.404 1176.98 376.455 1176.97 376.507 1176.97 376.559 1176.96 376.611 1176.96 376.662 1176.95 376.714 1176.95 376.765 1176.94 376.816 1176.93 376.867 1176.93 376.918 1176.92 376.969 1176.91 377.02 1176.91 377.071 1176.9 377.121 1176.89 377.172 1176.88 377.222 1176.87 377.273 1176.86 377.323 1176.85 377.373 1176.84 377.423 1176.83 377.473 1176.82 377.523 1176.81 377.573 1176.8 377.622 1176.79 377.672 1176.78 377.721 1176.77 377.77 1176.75 377.819 1176.74 377.869 1176.73 377.917 1176.72 377.966 1176.7 378.015 1176.69 378.063 1176.68 378.112 1176.66 378.16 1176.65 378.208 1176.63 378.256 1176.62 378.304 1176.6 378.352 1176.59 378.4 1176.57 378.447 1176.55 378.494 1176.54 378.542 1176.52 378.589 1176.5 378.636 1176.49 378.683 1176.47 378.73 1176.45 378.776 1176.43 378.822 1176.41 378.869 1176.4 378.915 1176.38 378.961 1176.36 379.007 1176.34 379.053 1176.32 379.098 1176.3 379.144 1176.28 379.189 1176.26 379.234 1176.24 379.279 1176.21 379.324 1176.19 379.369 1176.17 379.414 1176.15 379.458 1176.13 379.502 1176.11 379.546 1176.08 379.59 1176.06 379.634 1176.04 379.678 1176.01 379.721 1175.99 379.765 1175.97 379.808 1175.94 379.851 1175.92 379.894 1175.89 379.937 1175.87 379.979 1175.84 380.022 1175.82 380.064 1175.79 380.106 1175.76 380.148 1175.74 380.189 1175.71 380.231 1175.68 380.272 1175.66 380.313 1175.63 380.354 1175.6 380.395 1175.58 380.436 1175.55 380.477 1175.52 380.517 1175.49 380.557 1175.46 380.597 1175.43 380.637 1175.4 380.676 1175.38 380.716 1175.35 380.755 1175.32 380.794 1175.29 380.833 1175.26 380.872 1175.23 380.91 1175.19 380.948 1175.16 380.987 1175.13 381.025 1175.1 381.062 1175.07 381.1 1175.04 381.137 1175.01 381.174 1174.97 381.211 1174.94 381.248 1174.91 381.285 1174.88 381.321 1174.84 381.357 1174.81 381.393 1174.78 381.429 1174.74 381.465 1174.71 381.5 1174.67 381.535 1174.64 381.57 1174.61 381.605 1174.57 381.64 1174.54 381.674 1174.5 381.708 1174.46 381.742 1174.43 381.776 1174.39 381.809 1174.36 381.843 1174.32 381.876 1174.28 381.909 1174.25 381.941 1174.21 381.974 1174.17 382.006 1174.14 382.038 1174.1 382.07 1174.06 382.101 1174.02 382.133 1173.99 382.164 1173.95 382.195 1173.91 382.225 1173.87 382.256 1173.83 382.286 1173.79 382.316 1173.75 382.346 1173.72 382.375 1173.68 382.405 1173.64 382.434 1173.6 382.463 1173.56 382.491 1173.52 382.52 1173.48 382.548 1173.44 382.576 1173.4 382.603 1173.35 382.631 1173.31 382.658 1173.27 382.685 1173.23 382.712 1173.19 382.738 1173.15 382.764 1173.11 382.79 1173.06 382.816 1173.02 382.841 1172.98 382.867 1172.94 382.892 1172.89 382.917 1172.85 382.941 1172.81 382.965 1172.76 382.989 1172.72 383.013 1172.68 383.036 1172.63 383.06 1172.59 383.083 1172.55 383.105 1172.5 383.128 1172.46 383.15 1172.41 383.172 1172.37 383.194 1172.32 383.215 1172.28 383.236 1172.23 383.257 1172.19 383.277 1172.14 383.298 1172.1 383.318 1172.05 383.338 1172.01 383.357 1171.96 383.377 1171.92 383.395 1171.87 383.414 1171.82 383.433 1171.78 383.451 1171.73 383.469 1171.68 383.486 1171.64 383.504 1171.59 383.521 1171.54 383.537 1171.49 383.554 1171.45 383.57 1171.4 383.586 1171.35 383.602 1171.3 383.617 1171.26 383.632 1171.21 383.647 1171.16 383.662 1171.11 383.676 1171.06 383.69 1171.01 383.703 1170.97 383.717 1170.92 383.73 1170.87 383.742 1170.82 383.755 1170.77 383.767 1170.72 383.779 1170.67 383.79 1170.62 383.802 1170.57 383.813 1170.52 383.823 1170.47 383.834 1170.42 383.844 1170.37 383.854 1170.32 383.863 1170.27 383.872 1170.22 383.881 1170.17 383.89 1170.12 383.898 1170.07 383.906 1170.02 383.913 1169.97 383.921 1169.92 383.928 1169.87 383.934 1169.82 383.941 1169.76 383.947 1169.71 383.952 1169.66 383.958 1169.61 383.963 1169.56 383.968 1169.51 383.972 1169.46 383.976 1169.4 383.98 1169.35 383.984 1169.3 383.987 1169.25 383.989 1169.2 383.992 1169.14 383.994 1169.09 383.996 1169.04 383.997 1168.99 383.998 1168.93 383.999 1168.88 384 1168.83 384 1104.17 384 1104.12 384 1104.07 383.999 1104.01 383.998 1103.96 383.997 1103.91 383.996 1103.86 383.994 1103.8 383.992 1103.75 383.989 1103.7 383.987 1103.65 383.984 1103.6 383.98 1103.54 383.976 1103.49 383.972 1103.44 383.968 1103.39 383.963 1103.34 383.958 1103.29 383.952 1103.24 383.947 1103.18 383.941 1103.13 383.934 1103.08 383.928 1103.03 383.921 1102.98 383.913 1102.93 383.906 1102.88 383.898 1102.83 383.89 1102.78 383.881 1102.73 383.872 1102.68 383.863 1102.63 383.854 1102.58 383.844 1102.53 383.834 1102.48 383.823 1102.43 383.813 1102.38 383.802 1102.33 383.79 1102.28 383.779 1102.23 383.767 1102.18 383.755 1102.13 383.742 1102.08 383.73 1102.03 383.717 1101.99 383.703 1101.94 383.69 1101.89 383.676 1101.84 383.662 1101.79 383.647 1101.74 383.632 1101.7 383.617 1101.65 383.602 1101.6 383.586 1101.55 383.57 1101.51 383.554 1101.46 383.537 1101.41 383.521 1101.36 383.504 1101.32 383.486 1101.27 383.469 1101.22 383.451 1101.18 383.433 1101.13 383.414 1101.08 383.395 1101.04 383.377 1100.99 383.357 1100.95 383.338 1100.9 383.318 1100.86 383.298 1100.81 383.277 1100.77 383.257 1100.72 383.236 1100.68 383.215 1100.63 383.194 1100.59 383.172 1100.54 383.15 1100.5 383.128 1100.45 383.105 1100.41 383.083 1100.37 383.06 1100.32 383.036 1100.28 383.013 1100.24 382.989 1100.19 382.965 1100.15 382.941 1100.11 382.917 1100.06 382.892 1100.02 382.867 1099.98 382.841 1099.94 382.816 1099.89 382.79 1099.85 382.764 1099.81 382.738 1099.77 382.712 1099.73 382.685 1099.69 382.658 1099.65 382.631 1099.6 382.603 1099.56 382.576 1099.52 382.548 1099.48 382.52 1099.44 382.491 1099.4 382.463 1099.36 382.434 1099.32 382.405 1099.28 382.375 1099.25 382.346 1099.21 382.316 1099.17 382.286 1099.13 382.256 1099.09 382.225 1099.05 382.195 1099.01 382.164 1098.98 382.133 1098.94 382.101 1098.9 382.07 1098.86 382.038 1098.83 382.006 1098.79 381.974 1098.75 381.941 1098.72 381.909 1098.68 381.876 1098.64 381.843 1098.61 381.809 1098.57 381.776 1098.54 381.742 1098.5 381.708 1098.46 381.674 1098.43 381.64 1098.39 381.605 1098.36 381.57 1098.33 381.535 1098.29 381.5 1098.26 381.465 1098.22 381.429 1098.19 381.393 1098.16 381.357 1098.12 381.321 1098.09 381.285 1098.06 381.248 1098.03 381.211 1097.99 381.174 1097.96 381.137 1097.93 381.1 1097.9 381.062 1097.87 381.025 1097.84 380.987 1097.81 380.948 1097.77 380.91 1097.74 380.872 1097.71 380.833 1097.68 380.794 1097.65 380.755 1097.62 380.716 1097.6 380.676 1097.57 380.637 1097.54 380.597 1097.51 380.557 1097.48 380.517 1097.45 380.477 1097.42 380.436 1097.4 380.395 1097.37 380.354 1097.34 380.313 1097.32 380.272 1097.29 380.231 1097.26 380.189 1097.24 380.148 1097.21 380.106 1097.18 380.064 1097.16 380.022 1097.13 379.979 1097.11 379.937 1097.08 379.894 1097.06 379.851 1097.03 379.808 1097.01 379.765 1096.99 379.721 1096.96 379.678 1096.94 379.634 1096.92 379.59 1096.89 379.546 1096.87 379.502 1096.85 379.458 1096.83 379.414 1096.81 379.369 1096.79 379.324 1096.76 379.279 1096.74 379.234 1096.72 379.189 1096.7 379.144 1096.68 379.098 1096.66 379.053 1096.64 379.007 1096.62 378.961 1096.6 378.915 1096.59 378.869 1096.57 378.822 1096.55 378.776 1096.53 378.73 1096.51 378.683 1096.5 378.636 1096.48 378.589 1096.46 378.542 1096.45 378.494 1096.43 378.447 1096.41 378.4 1096.4 378.352 1096.38 378.304 1096.37 378.256 1096.35 378.208 1096.34 378.16 1096.32 378.112 1096.31 378.063 1096.3 378.015 1096.28 377.966 1096.27 377.917 1096.26 377.869 1096.25 377.819 1096.23 377.77 1096.22 377.721 1096.21 377.672 1096.2 377.622 1096.19 377.573 1096.18 377.523 1096.17 377.473 1096.16 377.423 1096.15 377.373 1096.14 377.323 1096.13 377.273 1096.12 377.222 1096.11 377.172 1096.1 377.121 1096.09 377.071 1096.09 377.02 1096.08 376.969 1096.07 376.918 1096.07 376.867 1096.06 376.816 1096.05 376.765 1096.05 376.714 1096.04 376.662 1096.04 376.611 1096.03 376.559 1096.03 376.507 1096.02 376.455 1096.02 376.404 1096.02 376.351 1096.01 376.299 1096.01 376.247 1096.01 376.195 1096.01 376.143 1096 376.09 1096 376.038 1096 375.985 1096 375.932 1096 375.88 1096 375.827 1096 311.173 1096 311.12 1096 311.068 1096 311.015 1096 310.962 1096 310.91 1096.01 310.857 1096.01 310.805 1096.01 310.753 1096.01 310.701 1096.02 310.649 1096.02 310.596 1096.02 310.545 1096.03 310.493 1096.03 310.441 1096.04 310.389 1096.04 310.338 1096.05 310.286 1096.05 310.235 1096.06 310.184 1096.07 310.133 1096.07 310.082 1096.08 310.031 1096.09 309.98 1096.09 309.929 1096.1 309.879 1096.11 309.828 1096.12 309.778 1096.13 309.727 1096.14 309.677 1096.15 309.627 1096.16 309.577 1096.17 309.527 1096.18 309.477 1096.19 309.427 1096.2 309.378 1096.21 309.328 1096.22 309.279 1096.23 309.23 1096.25 309.181 1096.26 309.131 1096.27 309.083 1096.28 309.034 1096.3 308.985 1096.31 308.937 1096.32 308.888 1096.34 308.84 1096.35 308.792 1096.37 308.744 1096.38 308.696 1096.4 308.648 1096.41 308.6 1096.43 308.553 1096.45 308.506 1096.46 308.458 1096.48 308.411 1096.5 308.364 1096.51 308.317 1096.53 308.27 1096.55 308.224 1096.57 308.178 1096.59 308.131 1096.6 308.085 1096.62 308.039 1096.64 307.993 1096.66 307.947 1096.68 307.902 1096.7 307.856 1096.72 307.811 1096.74 307.766 1096.76 307.721 1096.79 307.676 1096.81 307.631 1096.83 307.586 1096.85 307.542 1096.87 307.498 1096.89 307.454 1096.92 307.41 1096.94 307.366 1096.96 307.322 1096.99 307.279 1097.01 307.235 1097.03 307.192 1097.06 307.149 1097.08 307.106 1097.11 307.064 1097.13 307.021 1097.16 306.978 1097.18 306.936 1097.21 306.894 1097.24 306.852 1097.26 306.811 1097.29 306.769 1097.32 306.728 1097.34 306.687 1097.37 306.646 1097.4 306.605 1097.42 306.564 1097.45 306.523 1097.48 306.483 1097.51 306.443 1097.54 306.403 1097.57 306.363 1097.6 306.324 1097.62 306.284 1097.65 306.245 1097.68 306.206 1097.71 306.167 1097.74 306.128 1097.77 306.09 1097.81 306.052 1097.84 306.013 1097.87 305.975 1097.9 305.938 1097.93 305.9 1097.96 305.863 1097.99 305.826 1098.03 305.789 1098.06 305.752 1098.09 305.715 1098.12 305.679 1098.16 305.643 1098.19 305.607 1098.22 305.571 1098.26 305.535 1098.29 305.5 1098.33 305.465 1098.36 305.43 1098.39 305.395 1098.43 305.36 1098.46 305.326 1098.5 305.292 1098.54 305.258 1098.57 305.224 1098.61 305.191 1098.64 305.157 1098.68 305.124 1098.72 305.091 1098.75 305.059 1098.79 305.026 1098.83 304.994 1098.86 304.962 1098.9 304.93 1098.94 304.899 1098.98 304.867 1099.01 304.836 1099.05 304.805 1099.09 304.775 1099.13 304.744 1099.17 304.714 1099.21 304.684 1099.25 304.654 1099.28 304.625 1099.32 304.595 1099.36 304.566 1099.4 304.537 1099.44 304.509 1099.48 304.48 1099.52 304.452 1099.56 304.424 1099.6 304.397 1099.65 304.369 1099.69 304.342 1099.73 304.315 1099.77 304.288 1099.81 304.262 1099.85 304.236 1099.89 304.21 1099.94 304.184 1099.98 304.159 1100.02 304.133 1100.06 304.108 1100.11 304.083 1100.15 304.059 1100.19 304.035 1100.24 304.011 1100.28 303.987 1100.32 303.964 1100.37 303.94 1100.41 303.917 1100.45 303.895 1100.5 303.872 1100.54 303.85 1100.59 303.828 1100.63 303.806 1100.68 303.785 1100.72 303.764 1100.77 303.743 1100.81 303.723 1100.86 303.702 1100.9 303.682 1100.95 303.662 1100.99 303.643 1101.04 303.623 1101.08 303.605 1101.13 303.586 1101.18 303.567 1101.22 303.549 1101.27 303.531 1101.32 303.514 1101.36 303.496 1101.41 303.479 1101.46 303.463 1101.51 303.446 1101.55 303.43 1101.6 303.414 1101.65 303.398 1101.7 303.383 1101.74 303.368 1101.79 303.353 1101.84 303.338 1101.89 303.324 1101.94 303.31 1101.99 303.297 1102.03 303.283 1102.08 303.27 1102.13 303.258 1102.18 303.245 1102.23 303.233 1102.28 303.221 1102.33 303.21 1102.38 303.198 1102.43 303.187 1102.48 303.177 1102.53 303.166 1102.58 303.156 1102.63 303.146 1102.68 303.137 1102.73 303.128 1102.78 303.119 1102.83 303.11 1102.88 303.102 1102.93 303.094 1102.98 303.087 1103.03 303.079 1103.08 303.072 1103.13 303.066 1103.18 303.059 1103.24 303.053 1103.29 303.048 1103.34 303.042 1103.39 303.037 1103.44 303.032 1103.49 303.028 1103.54 303.024 1103.6 303.02 1103.65 303.016 1103.7 303.013 1103.75 303.011 1103.8 303.008 1103.86 303.006 1103.91 303.004 1103.96 303.003 1104.01 303.002 1104.07 303.001 1104.12 303 1104.17 303 1168.83 303 1168.88 303ZM1104.18 307.32 1104.15 307.32 1104.12 307.32 1104.1 307.321 1104.07 307.321 1104.05 307.322 1104.02 307.323 1104 307.324 1103.97 307.325 1103.95 307.326 1103.92 307.328 1103.9 307.33 1103.87 307.331 1103.85 307.333 1103.82 307.335 1103.8 307.338 1103.77 307.34 1103.75 307.343 1103.73 307.345 1103.7 307.348 1103.68 307.351 1103.65 307.354 1103.63 307.358 1103.61 307.361 1103.58 307.365 1103.56 307.368 1103.53 307.372 1103.51 307.376 1103.49 307.38 1103.46 307.385 1103.44 307.389 1103.42 307.394 1103.39 307.398 1103.37 307.403 1103.35 307.408 1103.32 307.413 1103.3 307.419 1103.28 307.424 1103.25 307.43 1103.23 307.435 1103.21 307.441 1103.19 307.447 1103.16 307.453 1103.14 307.459 1103.12 307.466 1103.1 307.472 1103.07 307.479 1103.05 307.486 1103.03 307.493 1103.01 307.5 1102.98 307.507 1102.96 307.514 1102.94 307.521 1102.92 307.529 1102.89 307.537 1102.87 307.545 1102.85 307.552 1102.83 307.561 1102.81 307.569 1102.78 307.577 1102.76 307.586 1102.74 307.594 1102.72 307.603 1102.7 307.612 1102.68 307.621 1102.66 307.63 1102.63 307.639 1102.61 307.649 1102.59 307.658 1102.57 307.668 1102.55 307.678 1102.53 307.688 1102.51 307.698 1102.49 307.708 1102.47 307.718 1102.44 307.729 1102.42 307.739 1102.4 307.75 1102.38 307.761 1102.36 307.772 1102.34 307.783 1102.32 307.794 1102.3 307.805 1102.28 307.817 1102.26 307.828 1102.24 307.84 1102.22 307.852 1102.2 307.864 1102.18 307.875 1102.16 307.888 1102.14 307.9 1102.12 307.912 1102.1 307.925 1102.08 307.937 1102.06 307.95 1102.04 307.963 1102.02 307.976 1102 307.989 1101.99 308.002 1101.97 308.016 1101.95 308.029 1101.93 308.043 1101.91 308.056 1101.89 308.07 1101.87 308.084 1101.85 308.098 1101.83 308.112 1101.82 308.126 1101.8 308.141 1101.78 308.155 1101.76 308.169 1101.74 308.184 1101.73 308.199 1101.71 308.214 1101.69 308.229 1101.67 308.244 1101.65 308.259 1101.64 308.274 1101.62 308.29 1101.6 308.306 1101.58 308.321 1101.57 308.337 1101.55 308.352 1101.53 308.368 1101.52 308.385 1101.5 308.401 1101.48 308.417 1101.47 308.433 1101.45 308.45 1101.43 308.466 1101.42 308.483 1101.4 308.5 1101.38 308.516 1101.37 308.533 1101.35 308.55 1101.34 308.567 1101.32 308.585 1101.31 308.602 1101.29 308.619 1101.27 308.637 1101.26 308.654 1101.24 308.672 1101.23 308.69 1101.21 308.708 1101.2 308.726 1101.18 308.743 1101.17 308.762 1101.15 308.78 1101.14 308.798 1101.13 308.816 1101.11 308.835 1101.1 308.853 1101.08 308.872 1101.07 308.891 1101.06 308.909 1101.04 308.928 1101.03 308.947 1101.02 308.966 1101 308.985 1100.99 309.005 1100.98 309.024 1100.96 309.043 1100.95 309.062 1100.94 309.082 1100.92 309.101 1100.91 309.121 1100.9 309.141 1100.89 309.161 1100.88 309.18 1100.86 309.2 1100.85 309.22 1100.84 309.24 1100.83 309.26 1100.82 309.281 1100.81 309.301 1100.79 309.321 1100.78 309.341 1100.77 309.362 1100.76 309.383 1100.75 309.403 1100.74 309.424 1100.73 309.445 1100.72 309.465 1100.71 309.486 1100.7 309.507 1100.69 309.528 1100.68 309.549 1100.67 309.57 1100.66 309.592 1100.65 309.613 1100.64 309.634 1100.63 309.655 1100.62 309.677 1100.61 309.698 1100.6 309.72 1100.59 309.742 1100.59 309.763 1100.58 309.785 1100.57 309.807 1100.56 309.829 1100.55 309.85 1100.54 309.873 1100.54 309.894 1100.53 309.917 1100.52 309.939 1100.51 309.961 1100.51 309.983 1100.5 310.005 1100.49 310.028 1100.49 310.05 1100.48 310.073 1100.47 310.095 1100.47 310.118 1100.46 310.141 1100.45 310.163 1100.45 310.186 1100.44 310.209 1100.44 310.232 1100.43 310.255 1100.42 310.278 1100.42 310.301 1100.41 310.324 1100.41 310.347 1100.4 310.37 1100.4 310.394 1100.39 310.417 1100.39 310.44 1100.38 310.464 1100.38 310.488 1100.38 310.511 1100.37 310.535 1100.37 310.559 1100.36 310.582 1100.36 310.606 1100.36 310.63 1100.35 310.654 1100.35 310.678 1100.35 310.702 1100.35 310.726 1100.34 310.751 1100.34 310.775 1100.34 310.799 1100.34 310.824 1100.33 310.848 1100.33 310.873 1100.33 310.897 1100.33 310.922 1100.33 310.947 1100.33 310.972 1100.32 310.997 1100.32 311.022 1100.32 311.047 1100.32 311.072 1100.32 311.097 1100.32 311.122 1100.32 311.148 1100.32 311.18 1100.32 375.82 1100.32 375.852 1100.32 375.878 1100.32 375.903 1100.32 375.928 1100.32 375.953 1100.32 375.978 1100.32 376.003 1100.33 376.028 1100.33 376.053 1100.33 376.078 1100.33 376.103 1100.33 376.127 1100.33 376.152 1100.34 376.176 1100.34 376.201 1100.34 376.225 1100.34 376.249 1100.35 376.274 1100.35 376.298 1100.35 376.322 1100.35 376.346 1100.36 376.37 1100.36 376.394 1100.36 376.418 1100.37 376.441 1100.37 376.465 1100.38 376.489 1100.38 376.512 1100.38 376.536 1100.39 376.559 1100.39 376.583 1100.4 376.606 1100.4 376.63 1100.41 376.653 1100.41 376.676 1100.42 376.699 1100.42 376.722 1100.43 376.745 1100.44 376.768 1100.44 376.791 1100.45 376.814 1100.45 376.837 1100.46 376.859 1100.47 376.882 1100.47 376.905 1100.48 376.927 1100.49 376.95 1100.49 376.972 1100.5 376.995 1100.51 377.017 1100.51 377.039 1100.52 377.061 1100.53 377.083 1100.54 377.106 1100.54 377.127 1100.55 377.15 1100.56 377.171 1100.57 377.193 1100.58 377.215 1100.59 377.237 1100.59 377.258 1100.6 377.28 1100.61 377.302 1100.62 377.323 1100.63 377.345 1100.64 377.366 1100.65 377.387 1100.66 377.409 1100.67 377.43 1100.68 377.451 1100.69 377.472 1100.7 377.493 1100.71 377.514 1100.72 377.535 1100.73 377.555 1100.74 377.576 1100.75 377.597 1100.76 377.617 1100.77 377.638 1100.78 377.658 1100.79 377.679 1100.81 377.699 1100.82 377.719 1100.83 377.74 1100.84 377.759 1100.85 377.78 1100.86 377.8 1100.88 377.82 1100.89 377.839 1100.9 377.859 1100.91 377.879 1100.92 377.899 1100.94 377.918 1100.95 377.938 1100.96 377.957 1100.98 377.976 1100.99 377.995 1101 378.015 1101.02 378.034 1101.03 378.053 1101.04 378.072 1101.06 378.091 1101.07 378.109 1101.08 378.128 1101.1 378.147 1101.11 378.165 1101.13 378.184 1101.14 378.202 1101.15 378.22 1101.17 378.238 1101.18 378.257 1101.2 378.275 1101.21 378.292 1101.23 378.31 1101.24 378.328 1101.26 378.346 1101.27 378.363 1101.29 378.381 1101.31 378.398 1101.32 378.415 1101.34 378.433 1101.35 378.45 1101.37 378.467 1101.38 378.483 1101.4 378.501 1101.42 378.517 1101.43 378.534 1101.45 378.55 1101.47 378.567 1101.48 378.583 1101.5 378.599 1101.52 378.615 1101.53 378.632 1101.55 378.648 1101.57 378.663 1101.58 378.679 1101.6 378.695 1101.62 378.71 1101.64 378.726 1101.65 378.741 1101.67 378.756 1101.69 378.771 1101.71 378.786 1101.73 378.801 1101.74 378.816 1101.76 378.831 1101.78 378.845 1101.8 378.859 1101.82 378.874 1101.83 378.888 1101.85 378.902 1101.87 378.916 1101.89 378.93 1101.91 378.944 1101.93 378.957 1101.95 378.971 1101.97 378.984 1101.99 378.998 1102 379.011 1102.02 379.024 1102.04 379.037 1102.06 379.05 1102.08 379.063 1102.1 379.075 1102.12 379.088 1102.14 379.1 1102.16 379.112 1102.18 379.125 1102.2 379.136 1102.22 379.149 1102.24 379.16 1102.26 379.172 1102.28 379.183 1102.3 379.195 1102.32 379.206 1102.34 379.217 1102.36 379.228 1102.38 379.239 1102.4 379.25 1102.42 379.261 1102.44 379.271 1102.47 379.282 1102.49 379.292 1102.51 379.302 1102.53 379.312 1102.55 379.322 1102.57 379.332 1102.59 379.342 1102.61 379.351 1102.63 379.361 1102.66 379.37 1102.68 379.379 1102.7 379.388 1102.72 379.397 1102.74 379.406 1102.76 379.414 1102.78 379.423 1102.81 379.431 1102.83 379.439 1102.85 379.448 1102.87 379.455 1102.89 379.463 1102.92 379.471 1102.94 379.479 1102.96 379.486 1102.98 379.493 1103.01 379.5 1103.03 379.507 1103.05 379.514 1103.07 379.521 1103.1 379.528 1103.12 379.534 1103.14 379.541 1103.16 379.547 1103.19 379.553 1103.21 379.559 1103.23 379.565 1103.25 379.57 1103.28 379.576 1103.3 379.581 1103.32 379.587 1103.35 379.592 1103.37 379.597 1103.39 379.602 1103.42 379.606 1103.44 379.611 1103.46 379.615 1103.49 379.62 1103.51 379.624 1103.53 379.628 1103.56 379.632 1103.58 379.635 1103.61 379.639 1103.63 379.642 1103.65 379.646 1103.68 379.649 1103.7 379.652 1103.73 379.655 1103.75 379.657 1103.77 379.66 1103.8 379.662 1103.82 379.665 1103.85 379.667 1103.87 379.669 1103.9 379.671 1103.92 379.672 1103.95 379.674 1103.97 379.675 1104 379.676 1104.02 379.677 1104.05 379.678 1104.07 379.679 1104.1 379.679 1104.12 379.68 1104.15 379.68 1104.18 379.68 1168.82 379.68 1168.85 379.68 1168.88 379.68 1168.9 379.679 1168.93 379.679 1168.95 379.678 1168.98 379.677 1169 379.676 1169.03 379.675 1169.05 379.674 1169.08 379.672 1169.1 379.671 1169.13 379.669 1169.15 379.667 1169.18 379.665 1169.2 379.662 1169.23 379.66 1169.25 379.657 1169.27 379.655 1169.3 379.652 1169.32 379.649 1169.35 379.646 1169.37 379.642 1169.39 379.639 1169.42 379.635 1169.44 379.632 1169.47 379.628 1169.49 379.624 1169.51 379.62 1169.54 379.615 1169.56 379.611 1169.58 379.606 1169.61 379.602 1169.63 379.597 1169.65 379.592 1169.68 379.587 1169.7 379.581 1169.72 379.576 1169.75 379.57 1169.77 379.565 1169.79 379.559 1169.81 379.553 1169.84 379.547 1169.86 379.541 1169.88 379.534 1169.9 379.528 1169.93 379.521 1169.95 379.514 1169.97 379.507 1169.99 379.5 1170.02 379.493 1170.04 379.486 1170.06 379.479 1170.08 379.471 1170.11 379.463 1170.13 379.455 1170.15 379.448 1170.17 379.439 1170.19 379.431 1170.22 379.423 1170.24 379.414 1170.26 379.406 1170.28 379.397 1170.3 379.388 1170.32 379.379 1170.35 379.37 1170.37 379.361 1170.39 379.351 1170.41 379.342 1170.43 379.332 1170.45 379.322 1170.47 379.312 1170.49 379.302 1170.51 379.292 1170.53 379.282 1170.56 379.271 1170.58 379.261 1170.6 379.25 1170.62 379.239 1170.64 379.229 1170.66 379.217 1170.68 379.206 1170.7 379.195 1170.72 379.183 1170.74 379.172 1170.76 379.16 1170.78 379.149 1170.8 379.136 1170.82 379.125 1170.84 379.112 1170.86 379.1 1170.88 379.088 1170.9 379.075 1170.92 379.063 1170.94 379.05 1170.96 379.037 1170.98 379.024 1171 379.011 1171.01 378.998 1171.03 378.984 1171.05 378.971 1171.07 378.957 1171.09 378.944 1171.11 378.93 1171.13 378.916 1171.15 378.902 1171.17 378.888 1171.18 378.874 1171.2 378.859 1171.22 378.845 1171.24 378.831 1171.26 378.816 1171.27 378.801 1171.29 378.786 1171.31 378.771 1171.33 378.756 1171.35 378.741 1171.36 378.726 1171.38 378.71 1171.4 378.695 1171.42 378.679 1171.43 378.663 1171.45 378.647 1171.47 378.632 1171.48 378.615 1171.5 378.599 1171.52 378.583 1171.53 378.567 1171.55 378.55 1171.57 378.534 1171.58 378.517 1171.6 378.501 1171.62 378.484 1171.63 378.467 1171.65 378.45 1171.66 378.433 1171.68 378.415 1171.69 378.398 1171.71 378.38 1171.73 378.363 1171.74 378.346 1171.76 378.328 1171.77 378.31 1171.79 378.292 1171.8 378.275 1171.82 378.257 1171.83 378.238 1171.85 378.22 1171.86 378.202 1171.87 378.184 1171.89 378.165 1171.9 378.147 1171.92 378.128 1171.93 378.109 1171.94 378.091 1171.96 378.072 1171.97 378.053 1171.98 378.034 1172 378.014 1172.01 377.995 1172.02 377.976 1172.04 377.957 1172.05 377.938 1172.06 377.918 1172.08 377.899 1172.09 377.879 1172.1 377.859 1172.11 377.839 1172.12 377.82 1172.14 377.8 1172.15 377.78 1172.16 377.76 1172.17 377.74 1172.18 377.719 1172.19 377.699 1172.21 377.679 1172.22 377.658 1172.23 377.638 1172.24 377.617 1172.25 377.597 1172.26 377.576 1172.27 377.555 1172.28 377.534 1172.29 377.514 1172.3 377.493 1172.31 377.472 1172.32 377.451 1172.33 377.43 1172.34 377.408 1172.35 377.387 1172.36 377.366 1172.37 377.345 1172.38 377.323 1172.39 377.301 1172.4 377.28 1172.41 377.258 1172.41 377.237 1172.42 377.215 1172.43 377.193 1172.44 377.171 1172.45 377.149 1172.46 377.127 1172.46 377.106 1172.47 377.083 1172.48 377.061 1172.49 377.039 1172.49 377.017 1172.5 376.995 1172.51 376.972 1172.51 376.949 1172.52 376.927 1172.53 376.905 1172.53 376.882 1172.54 376.859 1172.55 376.837 1172.55 376.814 1172.56 376.791 1172.56 376.768 1172.57 376.745 1172.58 376.722 1172.58 376.699 1172.59 376.676 1172.59 376.653 1172.6 376.63 1172.6 376.606 1172.61 376.583 1172.61 376.559 1172.62 376.536 1172.62 376.512 1172.62 376.489 1172.63 376.465 1172.63 376.442 1172.64 376.418 1172.64 376.394 1172.64 376.37 1172.65 376.346 1172.65 376.322 1172.65 376.298 1172.65 376.274 1172.66 376.249 1172.66 376.225 1172.66 376.201 1172.66 376.176 1172.67 376.152 1172.67 376.127 1172.67 376.102 1172.67 376.078 1172.67 376.053 1172.67 376.028 1172.68 376.003 1172.68 375.978 1172.68 375.953 1172.68 375.928 1172.68 375.903 1172.68 375.878 1172.68 375.852 1172.68 375.82 1172.68 311.18 1172.68 311.148 1172.68 311.122 1172.68 311.097 1172.68 311.072 1172.68 311.047 1172.68 311.022 1172.68 310.997 1172.67 310.972 1172.67 310.947 1172.67 310.922 1172.67 310.898 1172.67 310.873 1172.67 310.848 1172.66 310.824 1172.66 310.799 1172.66 310.775 1172.66 310.751 1172.65 310.726 1172.65 310.702 1172.65 310.678 1172.65 310.655 1172.64 310.63 1172.64 310.606 1172.64 310.582 1172.63 310.558 1172.63 310.535 1172.62 310.511 1172.62 310.488 1172.62 310.464 1172.61 310.441 1172.61 310.417 1172.6 310.394 1172.6 310.37 1172.59 310.347 1172.59 310.324 1172.58 310.301 1172.58 310.278 1172.57 310.255 1172.56 310.232 1172.56 310.209 1172.55 310.186 1172.55 310.163 1172.54 310.141 1172.53 310.118 1172.53 310.095 1172.52 310.073 1172.51 310.051 1172.51 310.028 1172.5 310.005 1172.49 309.983 1172.49 309.961 1172.48 309.939 1172.47 309.917 1172.46 309.894 1172.46 309.873 1172.45 309.851 1172.44 309.829 1172.43 309.807 1172.42 309.785 1172.41 309.763 1172.41 309.742 1172.4 309.72 1172.39 309.699 1172.38 309.677 1172.37 309.655 1172.36 309.634 1172.35 309.613 1172.34 309.592 1172.33 309.57 1172.32 309.549 1172.31 309.528 1172.3 309.507 1172.29 309.486 1172.28 309.465 1172.27 309.445 1172.26 309.424 1172.25 309.403 1172.24 309.383 1172.23 309.362 1172.22 309.341 1172.21 309.321 1172.19 309.301 1172.18 309.281 1172.17 309.26 1172.16 309.24 1172.15 309.22 1172.14 309.2 1172.12 309.18 1172.11 309.161 1172.1 309.141 1172.09 309.121 1172.08 309.101 1172.06 309.082 1172.05 309.063 1172.04 309.043 1172.02 309.024 1172.01 309.005 1172 308.985 1171.98 308.966 1171.97 308.947 1171.96 308.928 1171.94 308.909 1171.93 308.891 1171.92 308.872 1171.9 308.853 1171.89 308.835 1171.87 308.816 1171.86 308.798 1171.85 308.78 1171.83 308.762 1171.82 308.743 1171.8 308.726 1171.79 308.708 1171.77 308.69 1171.76 308.672 1171.74 308.654 1171.73 308.637 1171.71 308.619 1171.69 308.602 1171.68 308.585 1171.66 308.567 1171.65 308.55 1171.63 308.533 1171.62 308.516 1171.6 308.499 1171.58 308.483 1171.57 308.466 1171.55 308.45 1171.53 308.433 1171.52 308.417 1171.5 308.401 1171.48 308.384 1171.47 308.369 1171.45 308.353 1171.43 308.337 1171.42 308.321 1171.4 308.305 1171.38 308.29 1171.36 308.274 1171.35 308.259 1171.33 308.244 1171.31 308.229 1171.29 308.214 1171.27 308.199 1171.26 308.184 1171.24 308.17 1171.22 308.155 1171.2 308.141 1171.18 308.126 1171.17 308.112 1171.15 308.098 1171.13 308.084 1171.11 308.07 1171.09 308.056 1171.07 308.043 1171.05 308.029 1171.03 308.016 1171.01 308.002 1171 307.989 1170.98 307.976 1170.96 307.963 1170.94 307.95 1170.92 307.937 1170.9 307.925 1170.88 307.912 1170.86 307.9 1170.84 307.888 1170.82 307.875 1170.8 307.864 1170.78 307.852 1170.76 307.84 1170.74 307.828 1170.72 307.817 1170.7 307.805 1170.68 307.794 1170.66 307.783 1170.64 307.771 1170.62 307.761 1170.6 307.75 1170.58 307.739 1170.56 307.729 1170.53 307.718 1170.51 307.708 1170.49 307.698 1170.47 307.688 1170.45 307.678 1170.43 307.668 1170.41 307.658 1170.39 307.649 1170.37 307.639 1170.34 307.63 1170.32 307.621 1170.3 307.612 1170.28 307.603 1170.26 307.594 1170.24 307.586 1170.22 307.577 1170.19 307.569 1170.17 307.561 1170.15 307.552 1170.13 307.545 1170.11 307.537 1170.08 307.529 1170.06 307.521 1170.04 307.514 1170.02 307.507 1169.99 307.5 1169.97 307.493 1169.95 307.486 1169.93 307.479 1169.9 307.472 1169.88 307.466 1169.86 307.459 1169.84 307.453 1169.81 307.447 1169.79 307.441 1169.77 307.435 1169.75 307.43 1169.72 307.424 1169.7 307.419 1169.68 307.413 1169.65 307.408 1169.63 307.403 1169.61 307.398 1169.58 307.394 1169.56 307.389 1169.54 307.385 1169.51 307.38 1169.49 307.376 1169.47 307.372 1169.44 307.368 1169.42 307.365 1169.39 307.361 1169.37 307.358 1169.35 307.354 1169.32 307.351 1169.3 307.348 1169.27 307.345 1169.25 307.343 1169.23 307.34 1169.2 307.338 1169.18 307.335 1169.15 307.333 1169.13 307.331 1169.1 307.33 1169.08 307.328 1169.05 307.326 1169.03 307.325 1169 307.324 1168.98 307.323 1168.95 307.322 1168.93 307.321 1168.9 307.321 1168.88 307.32 1168.85 307.32 1168.82 307.32 1104.18 307.32Z" fill="#232253" fill-rule="evenodd"/><path d="M65.2034 23.1957C65.7418 23.1957 66.1789 23.6331 66.1789 24.1715L66.1789 31.9764C66.1789 32.515 65.7418 32.9522 65.2034 32.9522L15.7966 32.9522C15.2582 32.9522 14.8211 32.515 14.8211 31.9764L14.8211 24.1715C14.8211 23.6331 15.2582 23.1957 15.7966 23.1957L65.2034 23.1957ZM30.3488 26.3307 27.3534 26.3307C27.1609 26.3307 27.0046 26.487 27.0046 26.6795L27.0046 29.4686C27.0046 29.6609 27.1609 29.8172 27.3534 29.8172L30.3488 29.8172C30.5413 29.8172 30.6974 29.6609 30.6974 29.4686L30.6974 26.6795C30.6974 26.487 30.5413 26.3307 30.3488 26.3307ZM61.7744 26.3307 46.2416 26.3307C46.049 26.3307 45.893 26.487 45.893 26.6795L45.893 29.4686C45.893 29.6609 46.049 29.8172 46.2416 29.8172L61.7744 29.8172C61.9669 29.8172 62.123 29.6609 62.123 29.4686L62.123 26.6795C62.123 26.487 61.9669 26.3307 61.7744 26.3307ZM23.8459 26.3307 20.8505 26.3307C20.658 26.3307 20.5019 26.487 20.5019 26.6795L20.5019 29.4686C20.5019 29.6609 20.658 29.8172 20.8505 29.8172L23.8459 29.8172C24.0384 29.8172 24.1947 29.6609 24.1947 29.4686L24.1947 26.6795C24.1947 26.487 24.0384 26.3307 23.8459 26.3307Z" fill="#232253" fill-rule="evenodd" transform="matrix(1.05166 0 0 1 1093.91 301.917)"/><path d="M65.2034 23.1957C65.7418 23.1957 66.1789 23.6331 66.1789 24.1715L66.1789 31.9764C66.1789 32.515 65.7418 32.9522 65.2034 32.9522L15.7966 32.9522C15.2582 32.9522 14.8211 32.515 14.8211 31.9764L14.8211 24.1715C14.8211 23.6331 15.2582 23.1957 15.7966 23.1957L65.2034 23.1957ZM30.3488 26.3307 27.3534 26.3307C27.1609 26.3307 27.0046 26.487 27.0046 26.6795L27.0046 29.4686C27.0046 29.6609 27.1609 29.8172 27.3534 29.8172L30.3488 29.8172C30.5413 29.8172 30.6974 29.6609 30.6974 29.4686L30.6974 26.6795C30.6974 26.487 30.5413 26.3307 30.3488 26.3307ZM61.7744 26.3307 46.2416 26.3307C46.049 26.3307 45.893 26.487 45.893 26.6795L45.893 29.4686C45.893 29.6609 46.049 29.8172 46.2416 29.8172L61.7744 29.8172C61.9669 29.8172 62.123 29.6609 62.123 29.4686L62.123 26.6795C62.123 26.487 61.9669 26.3307 61.7744 26.3307ZM23.8459 26.3307 20.8505 26.3307C20.658 26.3307 20.5019 26.487 20.5019 26.6795L20.5019 29.4686C20.5019 29.6609 20.658 29.8172 20.8505 29.8172L23.8459 29.8172C24.0384 29.8172 24.1947 29.6609 24.1947 29.4686L24.1947 26.6795C24.1947 26.487 24.0384 26.3307 23.8459 26.3307Z" fill="#232253" fill-rule="evenodd" transform="matrix(1.05166 0 0 1 1093.9 328.935)"/><path d="M65.2034 23.1957C65.7418 23.1957 66.1789 23.6331 66.1789 24.1715L66.1789 31.9764C66.1789 32.515 65.7418 32.9522 65.2034 32.9522L15.7966 32.9522C15.2582 32.9522 14.8211 32.515 14.8211 31.9764L14.8211 24.1715C14.8211 23.6331 15.2582 23.1957 15.7966 23.1957L65.2034 23.1957ZM30.3488 26.3307 27.3534 26.3307C27.1609 26.3307 27.0046 26.487 27.0046 26.6795L27.0046 29.4686C27.0046 29.6609 27.1609 29.8172 27.3534 29.8172L30.3488 29.8172C30.5413 29.8172 30.6974 29.6609 30.6974 29.4686L30.6974 26.6795C30.6974 26.487 30.5413 26.3307 30.3488 26.3307ZM61.7744 26.3307 46.2416 26.3307C46.049 26.3307 45.893 26.487 45.893 26.6795L45.893 29.4686C45.893 29.6609 46.049 29.8172 46.2416 29.8172L61.7744 29.8172C61.9669 29.8172 62.123 29.6609 62.123 29.4686L62.123 26.6795C62.123 26.487 61.9669 26.3307 61.7744 26.3307ZM23.8459 26.3307 20.8505 26.3307C20.658 26.3307 20.5019 26.487 20.5019 26.6795L20.5019 29.4686C20.5019 29.6609 20.658 29.8172 20.8505 29.8172L23.8459 29.8172C24.0384 29.8172 24.1947 29.6609 24.1947 29.4686L24.1947 26.6795C24.1947 26.487 24.0384 26.3307 23.8459 26.3307Z" fill="#232253" fill-rule="evenodd" transform="matrix(1.05166 0 0 1 1093.91 315.426)"/></g></g></g><text fill="#232253" font-family="Open Sans SemiBold,Open Sans SemiBold_MSFontService,Arial" font-weight="600" font-size="24" transform="translate(1071.44 289)">IPv4 Server<tspan font-size="24" x="-185.605" y="231">DC </tspan>proximity<tspan font-size="24" x="-148.025" y="259">NAT64</tspan><tspan font-size="24" x="-425.457" y="-180">NAT64 </tspan><tspan font-size="24" x="-438.537" y="-152">platform</tspan><tspan font-size="24" x="-444.791" y="-123">Backbone</tspan></text><g clip-path="url(#clip10)"><g clip-path="url(#clip11)"><g clip-path="url(#clip12)"><path d="M80 8.07227C80 3.61707 76.3829 0 71.9277 0L8.07227 0C3.61707 0 0 3.61707 0 8.07227L0 71.9277C0 76.3829 3.61707 80 8.07227 80L71.9277 80C76.3829 80 80 76.3829 80 71.9277L80 8.07227Z" fill="#FFFEFE" fill-rule="evenodd" transform="matrix(1 0 0 1.0125 175 176)"/><path d="M80 8.07227C80 3.61707 76.3829 0 71.9277 0L8.07227 0C3.61707 0 0 3.61707 0 8.07227L0 71.9277C0 76.3829 3.61707 80 8.07227 80L71.9277 80C76.3829 80 80 76.3829 80 71.9277L80 8.07227ZM75.7333 8.07227 75.7333 71.9277C75.7333 74.0283 74.0283 75.7333 71.9277 75.7333 71.9277 75.7333 8.07227 75.7333 8.07227 75.7333 5.97173 75.7333 4.26667 74.0283 4.26667 71.9277L4.26667 8.07227C4.26667 5.97173 5.97173 4.26667 8.07227 4.26667L71.9277 4.26667C74.0283 4.26667 75.7333 5.97173 75.7333 8.07227Z" fill="#232253" fill-rule="evenodd" transform="matrix(1 0 0 1.0125 175 176)"/><path d="M32.159 29.2025 34.1629 29.2025 34.1629 20.5645C34.1629 20.43 34.2049 20.3054 34.2767 20.203L34.2774 20.2015C34.392 20.0389 34.5811 19.9325 34.7949 19.9325L42.8419 19.9325 42.8419 19.3986C42.8419 19.1041 43.0813 18.8649 43.3758 18.8649L51.5293 18.8649C51.8238 18.8649 52.0629 19.1041 52.0629 19.3986L52.0629 19.9325 60.0781 19.9325C60.292 19.9325 60.4811 20.0389 60.5956 20.2015L60.5963 20.203C60.6681 20.3054 60.7101 20.43 60.7101 20.5645L60.7101 53.3249 62.5709 53.3249C62.9195 53.3249 63.2029 53.608 63.2029 53.9569L63.2029 55.2209C63.2029 55.5695 62.9195 55.8529 62.5709 55.8529L10.4938 55.8529C10.145 55.8529 9.86185 55.5697 9.86185 55.2209L9.86185 53.9569C9.86185 53.608 10.145 53.3249 10.4938 53.3249L11.9454 53.3249 11.9454 29.8345C11.9454 29.8034 11.9477 29.7729 11.952 29.7428L11.9522 29.7408C11.9977 29.4364 12.2604 29.2025 12.5774 29.2025L16.9743 29.2025 16.9743 28.2576C16.9743 27.9628 17.2134 27.7237 17.5079 27.7237L22.0418 27.7237C22.3363 27.7237 22.5755 27.9628 22.5755 28.2576L22.5755 29.2025 26.5578 29.2025 26.5578 28.2576C26.5578 27.9628 26.7969 27.7237 27.0914 27.7237L31.6254 27.7237C31.9199 27.7237 32.159 27.9628 32.159 28.2576L32.159 29.2025ZM34.1629 31.7305 14.4734 31.7305 14.4734 53.3249 34.1629 53.3249 34.1629 31.7305ZM58.1821 22.4605 36.6909 22.4605 36.6909 53.3249 43.57 53.3249 43.57 47.4732C43.57 47.296 43.7138 47.1524 43.891 47.1521L51.0141 47.1521C51.1913 47.1524 51.3349 47.296 51.3349 47.4732L51.3349 53.3249 58.1821 53.3249 58.1821 22.4605ZM46.7906 48.4358 44.8537 48.4358 44.8537 53.3249 46.7906 53.3249 46.7906 48.4358ZM50.0514 48.4358 48.0741 48.4358 48.0741 53.3249 50.0514 53.3249 50.0514 48.4358ZM19.5022 47.2932 16.9743 47.2932 16.9743 49.8211 19.5022 49.8211 19.5022 47.2932ZM25.3193 47.2932 22.7914 47.2932 22.7914 49.8211 25.3193 49.8211 25.3193 47.2932ZM31.1364 47.2932 28.6085 47.2932 28.6085 49.8211 31.1364 49.8211 31.1364 47.2932ZM19.5022 41.2301 16.9743 41.2301 16.9743 43.7581 19.5022 43.7581 19.5022 41.2301ZM25.3193 41.2301 22.7914 41.2301 22.7914 43.7581 25.3193 43.7581 25.3193 41.2301ZM31.1364 41.2301 28.6085 41.2301 28.6085 43.7581 31.1364 43.7581 31.1364 41.2301ZM42.8993 38.7021 40.3714 38.7021 40.3714 41.2301 42.8993 41.2301 42.8993 38.7021ZM48.7164 38.7021 46.1885 38.7021 46.1885 41.2301 48.7164 41.2301 48.7164 38.7021ZM54.5338 38.7021 52.0058 38.7021 52.0058 41.2301 54.5338 41.2301 54.5338 38.7021ZM19.5022 35.1673 16.9743 35.1673 16.9743 37.6953 19.5022 37.6953 19.5022 35.1673ZM25.3193 35.1673 22.7914 35.1673 22.7914 37.6953 25.3193 37.6953 25.3193 35.1673ZM31.1364 35.1673 28.6085 35.1673 28.6085 37.6953 31.1364 37.6953 31.1364 35.1673ZM42.8993 32.6393 40.3714 32.6393 40.3714 35.1673 42.8993 35.1673 42.8993 32.6393ZM48.7164 32.6393 46.1885 32.6393 46.1885 35.1673 48.7164 35.1673 48.7164 32.6393ZM54.5338 32.6393 52.0058 32.6393 52.0058 35.1673 54.5338 35.1673 54.5338 32.6393ZM42.8993 26.5765 40.3714 26.5765 40.3714 29.1045 42.8993 29.1045 42.8993 26.5765ZM48.7164 26.5765 46.1885 26.5765 46.1885 29.1045 48.7164 29.1045 48.7164 26.5765ZM54.5338 26.5765 52.0058 26.5765 52.0058 29.1045 54.5338 29.1045 54.5338 26.5765Z" fill="#232253" fill-rule="evenodd" transform="matrix(1 0 0 1.0125 178.468 178.674)"/></g></g></g><path d="M713.224 220.124 1001.91 272.785 1004.29 259.77 1025.57 290.548 994.793 311.83 997.167 298.815 708.476 246.154Z" fill="#5DAAD3" fill-rule="evenodd"/><text fill="#FFFFFF" font-family="Open Sans SemiBold,Open Sans SemiBold_MSFontService,Arial" font-weight="600" font-size="21" transform="matrix(0.983767 0.179451 -0.179451 0.983767 839.178 264)">IPv4</text><g clip-path="url(#clip13)"><g clip-path="url(#clip14)"><g clip-path="url(#clip15)"><path d="M724 184.173C724 179.662 720.338 176 715.827 176L651.173 176C646.662 176 643 179.662 643 184.173L643 248.827C643 253.338 646.662 257 651.173 257L715.827 257C720.338 257 724 253.338 724 248.827L724 184.173Z" fill="#FFFEFE" fill-rule="evenodd"/><path d="M724 184.173C724 179.662 720.338 176 715.827 176L651.173 176C646.662 176 643 179.662 643 184.173L643 248.827C643 253.338 646.662 257 651.173 257L715.827 257C720.338 257 724 253.338 724 248.827L724 184.173ZM719.68 184.173 719.68 248.827C719.68 250.954 717.954 252.68 715.827 252.68 715.827 252.68 651.173 252.68 651.173 252.68 649.046 252.68 647.32 250.954 647.32 248.827L647.32 184.173C647.32 182.046 649.046 180.32 651.173 180.32L715.827 180.32C717.954 180.32 719.68 182.046 719.68 184.173Z" fill="#232253" fill-rule="evenodd"/><path d="M692.64 218.94C692.266 220.752 691.473 222.411 690.367 223.812L695.925 230.43 696.469 224.182 700.922 229.485 700.096 238.976 690.353 238.128 686.047 233.001 692.304 233.546 686.712 226.887C685.057 227.78 683.162 228.288 681.15 228.288 675.482 228.288 670.747 224.259 669.655 218.912L664.758 218.912C663.969 220.178 662.564 221.022 660.963 221.022 658.498 221.022 656.496 219.02 656.496 216.555 656.496 214.09 658.498 212.088 660.963 212.088 662.564 212.088 663.969 212.932 664.758 214.198L669.655 214.198C670.747 208.851 675.482 204.822 681.15 204.822 683.161 204.822 685.054 205.329 686.709 206.222L692.267 199.608 686.019 200.15 690.474 194.848 699.965 194.024 700.811 203.767 696.504 208.893 695.961 202.636 690.365 209.295C691.471 210.696 692.264 212.353 692.639 214.164L701.277 214.164 696.842 209.729 703.767 209.729 710.504 216.466 703.589 223.381 696.893 223.381 701.335 218.94 692.64 218.94ZM681.15 208.453C685.622 208.453 689.252 212.084 689.252 216.555 689.252 221.026 685.622 224.656 681.15 224.656 676.679 224.656 673.049 221.026 673.049 216.555 673.049 212.084 676.679 208.453 681.15 208.453Z" fill="#232253" fill-rule="evenodd"/></g></g></g><path d="M998 591.25 1069.5 591.25 1069.5 578 1096 604.5 1069.5 631 1069.5 617.75 998 617.75Z" fill="#5DAAD3" fill-rule="evenodd"/><text fill="#FFFFFF" font-family="Open Sans SemiBold,Open Sans SemiBold_MSFontService,Arial" font-weight="600" font-size="21" transform="translate(1018.65 612)">IPv4</text><g clip-path="url(#clip16)"><g clip-path="url(#clip17)"><g clip-path="url(#clip18)"><path d="M80 8.07227C80 3.61707 76.3829 0 71.9277 0L8.07227 0C3.61707 0 0 3.61707 0 8.07227L0 71.9277C0 76.3829 3.61707 80 8.07227 80L71.9277 80C76.3829 80 80 76.3829 80 71.9277L80 8.07227Z" fill="#FFFEFE" fill-rule="evenodd" transform="matrix(1.0125 0 0 1 918 564)"/><path d="M80 8.07227C80 3.61707 76.3829 0 71.9277 0L8.07227 0C3.61707 0 0 3.61707 0 8.07227L0 71.9277C0 76.3829 3.61707 80 8.07227 80L71.9277 80C76.3829 80 80 76.3829 80 71.9277L80 8.07227ZM75.7333 8.07227 75.7333 71.9277C75.7333 74.0283 74.0283 75.7333 71.9277 75.7333 71.9277 75.7333 8.07227 75.7333 8.07227 75.7333 5.97173 75.7333 4.26667 74.0283 4.26667 71.9277L4.26667 8.07227C4.26667 5.97173 5.97173 4.26667 8.07227 4.26667L71.9277 4.26667C74.0283 4.26667 75.7333 5.97173 75.7333 8.07227Z" fill="#232253" fill-rule="evenodd" transform="matrix(1.0125 0 0 1 918 564)"/><path d="M46.1039 37.1114C45.7338 38.9006 44.9509 40.5392 43.8591 41.9234L49.3477 48.4591 49.8851 42.2884 54.2838 47.5265 53.4675 56.9002 43.8447 56.0621 39.5925 50.9984 45.7721 51.5367 40.2489 44.9599C38.614 45.8427 36.743 46.3439 34.7558 46.3439 29.1571 46.3439 24.4806 42.3651 23.402 37.0833L18.5661 37.0833C17.7869 38.3345 16.399 39.168 14.818 39.168 12.3828 39.168 10.4059 37.1908 10.4059 34.7558 10.4059 32.3208 12.3828 30.3437 14.818 30.3437 16.399 30.3437 17.7869 31.1771 18.5661 32.4284L23.402 32.4284C24.4806 27.1466 29.1571 23.1678 34.7558 23.1678 36.7418 23.1678 38.6117 23.6683 40.2461 24.5501L45.735 18.0179 39.5642 18.5536 43.9643 13.3168 53.3382 12.5028 54.1737 22.1258 49.92 27.1883 49.3834 21.0087 43.8572 27.5857C44.9488 28.9688 45.732 30.6062 46.1027 32.3941L54.6336 32.3941 50.2537 28.0141 57.0937 28.0141 63.7471 34.6676 56.9171 41.4975 50.3047 41.4975 54.6909 37.1114 46.1039 37.1114ZM34.7558 26.7544C39.1719 26.7544 42.7573 30.3398 42.7573 34.7558 42.7573 39.1719 39.1719 42.7573 34.7558 42.7573 30.3398 42.7573 26.7544 39.1719 26.7544 34.7558 26.7544 30.3398 30.3398 26.7544 34.7558 26.7544Z" fill="#232253" fill-rule="evenodd" transform="matrix(1.0125 0 0 1 920.96 569.298)"/></g></g></g><path d="M157 287 706.231 287" stroke="#1A1A1A" stroke-width="2" stroke-miterlimit="8" fill="none" fill-rule="evenodd"/><path d="M144 592.25 877.501 592.25 877.501 579 904 605.5 877.501 632 877.501 618.75 144 618.75Z" fill="#EE5557" fill-rule="evenodd"/><text fill="#FFFFFF" font-family="Open Sans SemiBold,Open Sans SemiBold_MSFontService,Arial" font-weight="600" font-size="21" transform="translate(495.6 613)">IPv6</text><path d="M107.198 0.00389545C166.844-0.55764 215.554 60.3224 215.997 135.983 216.378 201.192 180.473 257.705 130.16 271.085L130.16 271.085 76.6347 255.53 137.424 243.636 137.424 243.636C181.298 221.823 203.692 156.397 187.441 97.504 175.048 52.5885 143.016 22.9124 107.335 23.2885Z" fill="#EE5557" fill-rule="evenodd" transform="matrix(-1 0 0 1 275 346)"/><path d="M152.289 0.00633858C237.062-0.895626 306.327 91.0474 306.996 205.367 307.664 319.686 239.484 413.091 154.711 413.993 148.196 414.063 141.684 413.573 135.215 412.526L135.215 412.526 106.382 389.444 141.894 386.664 141.894 386.664C211.696 395.776 273.478 322.724 279.888 223.499 286.298 124.273 234.909 36.4477 165.106 27.3357 160.897 26.7863 156.671 26.5361 152.445 26.586Z" fill="#EE5557" fill-rule="evenodd" transform="matrix(-1 0 0 1 317 206)"/><rect x="59" y="651" width="1200" height="39" stroke="#232253" stroke-width="2" stroke-linejoin="round" stroke-miterlimit="10" fill="none"/><text fill="#232253" font-family="Open Sans SemiBold,Open Sans SemiBold_MSFontService,Arial" font-style="italic" font-weight="600" font-size="24" transform="translate(161.264 679)">The high-<tspan font-size="24" x="100.667" y="0">traffic server has a DC devoted platform, here the DNS record is manually created</tspan></text><path d="M148 471 851.15 471" stroke="#1A1A1A" stroke-width="2" stroke-miterlimit="8" fill="none" fill-rule="evenodd"/><g clip-path="url(#clip19)"><g clip-path="url(#clip20)"><g clip-path="url(#clip21)"><path d="M255 331.072C255 326.617 251.383 323 246.928 323L183.072 323C178.617 323 175 326.617 175 331.072L175 394.928C175 399.383 178.617 403 183.072 403L246.928 403C251.383 403 255 399.383 255 394.928L255 331.072Z" fill="#FFFEFE" fill-rule="evenodd"/><path d="M255 331.072C255 326.617 251.383 323 246.928 323L183.072 323C178.617 323 175 326.617 175 331.072L175 394.928C175 399.383 178.617 403 183.072 403L246.928 403C251.383 403 255 399.383 255 394.928L255 331.072ZM250.733 331.072 250.733 394.928C250.733 397.028 249.028 398.733 246.928 398.733 246.928 398.733 183.072 398.733 183.072 398.733 180.972 398.733 179.267 397.028 179.267 394.928L179.267 331.072C179.267 328.972 180.972 327.267 183.072 327.267L246.928 327.267C249.028 327.267 250.733 328.972 250.733 331.072Z" fill="#232253" fill-rule="evenodd"/><path d="M210.627 354.844 212.631 354.844 212.631 346.206C212.631 346.071 212.673 345.947 212.744 345.844L212.745 345.843C212.86 345.68 213.049 345.574 213.263 345.574L221.31 345.574 221.31 345.04C221.31 344.745 221.549 344.506 221.844 344.506L229.997 344.506C230.292 344.506 230.531 344.745 230.531 345.04L230.531 345.574 238.546 345.574C238.76 345.574 238.949 345.68 239.063 345.843L239.064 345.844C239.136 345.947 239.178 346.071 239.178 346.206L239.178 378.966 241.039 378.966C241.387 378.966 241.671 379.249 241.671 379.598L241.671 380.862C241.671 381.211 241.387 381.494 241.039 381.494L188.962 381.494C188.613 381.494 188.33 381.211 188.33 380.862L188.33 379.598C188.33 379.249 188.613 378.966 188.962 378.966L190.413 378.966 190.413 355.476C190.413 355.445 190.415 355.414 190.42 355.384L190.42 355.382C190.465 355.078 190.728 354.844 191.045 354.844L195.442 354.844 195.442 353.899C195.442 353.604 195.681 353.365 195.976 353.365L200.51 353.365C200.804 353.365 201.043 353.604 201.043 353.899L201.043 354.844 205.026 354.844 205.026 353.899C205.026 353.604 205.265 353.365 205.559 353.365L210.093 353.365C210.388 353.365 210.627 353.604 210.627 353.899L210.627 354.844ZM212.631 357.372 192.941 357.372 192.941 378.966 212.631 378.966 212.631 357.372ZM236.65 348.102 215.159 348.102 215.159 378.966 222.038 378.966 222.038 373.114C222.038 372.937 222.182 372.793 222.359 372.793L229.482 372.793C229.659 372.793 229.803 372.937 229.803 373.114L229.803 378.966 236.65 378.966 236.65 348.102ZM225.258 374.077 223.321 374.077 223.321 378.966 225.258 378.966 225.258 374.077ZM228.519 374.077 226.542 374.077 226.542 378.966 228.519 378.966 228.519 374.077ZM197.97 372.934 195.442 372.934 195.442 375.462 197.97 375.462 197.97 372.934ZM203.787 372.934 201.259 372.934 201.259 375.462 203.787 375.462 203.787 372.934ZM209.604 372.934 207.076 372.934 207.076 375.462 209.604 375.462 209.604 372.934ZM197.97 366.871 195.442 366.871 195.442 369.399 197.97 369.399 197.97 366.871ZM203.787 366.871 201.259 366.871 201.259 369.399 203.787 369.399 203.787 366.871ZM209.604 366.871 207.076 366.871 207.076 369.399 209.604 369.399 209.604 366.871ZM221.367 364.343 218.839 364.343 218.839 366.871 221.367 366.871 221.367 364.343ZM227.184 364.343 224.656 364.343 224.656 366.871 227.184 366.871 227.184 364.343ZM233.001 364.343 230.474 364.343 230.474 366.871 233.001 366.871 233.001 364.343ZM197.97 360.808 195.442 360.808 195.442 363.336 197.97 363.336 197.97 360.808ZM203.787 360.808 201.259 360.808 201.259 363.336 203.787 363.336 203.787 360.808ZM209.604 360.808 207.076 360.808 207.076 363.336 209.604 363.336 209.604 360.808ZM221.367 358.28 218.839 358.28 218.839 360.808 221.367 360.808 221.367 358.28ZM227.184 358.28 224.656 358.28 224.656 360.808 227.184 360.808 227.184 358.28ZM233.001 358.28 230.474 358.28 230.474 360.808 233.001 360.808 233.001 358.28ZM221.367 352.218 218.839 352.218 218.839 354.746 221.367 354.746 221.367 352.218ZM227.184 352.218 224.656 352.218 224.656 354.746 227.184 354.746 227.184 352.218ZM233.001 352.218 230.474 352.218 230.474 354.746 233.001 354.746 233.001 352.218Z" fill="#232253" fill-rule="evenodd"/></g></g></g></g></svg>