<svg viewBox="0 0 96 96" xmlns="http://www.w3.org/2000/svg" xmlns:xlink="http://www.w3.org/1999/xlink" id="Icons_WirelessRouter_M" overflow="hidden"><g id="Icons"><path d="M34.571 47.429 35.985 46.015C29.3493 39.3948 29.3368 28.6487 35.957 22.013 35.9663 22.0036 35.9757 21.9943 35.985 21.985L34.571 20.571C27.1544 27.9716 27.1414 39.9834 34.542 47.4 34.5517 47.4097 34.5613 47.4194 34.571 47.429Z"/><path d="M55.775 41.775C60.069 37.4892 60.0757 30.5339 55.7899 26.2399 55.7849 26.2349 55.78 26.23 55.775 26.225L54.361 27.639C57.8741 31.1444 57.8803 36.834 54.3749 40.3471 54.3703 40.3517 54.3656 40.3564 54.361 40.361Z"/><path d="M41.639 40.361C38.1259 36.8556 38.1197 31.166 41.6251 27.6529 41.6297 27.6483 41.6344 27.6436 41.639 27.639L40.225 26.225C35.931 30.5108 35.9243 37.4661 40.2101 41.7601 40.2151 41.7651 40.22 41.77 40.225 41.775Z"/><path d="M65.669 51.669 67.083 53.083C77.6223 42.5675 77.6415 25.4993 67.1261 14.9601 67.1117 14.9457 67.0974 14.9313 67.083 14.917L65.669 16.331C75.4273 26.0661 75.4462 41.8686 65.7111 51.6269 65.6971 51.641 65.683 51.655 65.669 51.669Z"/><path d="M30.331 51.669C20.5727 41.9339 20.5538 26.1314 30.2889 16.3731 30.3029 16.359 30.317 16.345 30.331 16.331L28.917 14.917C18.3778 25.4325 18.3585 42.5007 28.8739 53.0399 28.8883 53.0543 28.9026 53.0687 28.917 53.083Z"/><path d="M61.429 47.429C68.8456 40.0284 68.8586 28.0166 61.458 20.6 61.4483 20.5903 61.4387 20.5806 61.429 20.571L60.015 21.985C66.6507 28.6052 66.6632 39.3513 60.043 45.987 60.0337 45.9964 60.0243 46.0057 60.015 46.015Z"/><path d="M77 62 49 62 49 36.816C50.5621 36.2637 51.3807 34.5497 50.8284 32.9876 50.2761 31.4255 48.5621 30.6069 47 31.1591 45.4379 31.7114 44.6193 33.4255 45.1716 34.9876 45.4736 35.8419 46.1457 36.5139 47 36.816L47 62 19 62C16.2399 62.0033 14.0033 64.2399 14 67L14 77C14.0033 79.7601 16.2399 81.9967 19 82L77 82C79.7601 81.9967 81.9967 79.7601 82 77L82 67C81.9967 64.2399 79.7601 62.0033 77 62ZM80 77C80 78.6569 78.6569 80 77 80L19 80C17.3431 80 16 78.6569 16 77L16 67C16 65.3431 17.3431 64 19 64L77 64C78.6569 64 80 65.3431 80 67Z"/><circle cx="25" cy="72" r="3"/><circle cx="41" cy="72" r="2"/><circle cx="51" cy="72" r="2"/><circle cx="61" cy="72" r="2"/><circle cx="71" cy="72" r="2"/></g></svg>