<svg width="1280" height="720" xmlns="http://www.w3.org/2000/svg" xmlns:xlink="http://www.w3.org/1999/xlink" overflow="hidden"><defs><clipPath id="clip0"><rect x="0" y="0" width="1280" height="720"/></clipPath></defs><g clip-path="url(#clip0)"><rect x="0" y="0" width="1280" height="720" fill="#FFFFFF"/><path d="M191.5 254.5 371.5 254.5 390.5 273.5 371.5 292.5 191.5 292.5Z" stroke="#F1EDE6" stroke-width="1.33333" stroke-miterlimit="8" fill="#232253" fill-rule="evenodd"/><text fill="#FFFFFF" font-family="Open Sans SemiBold,Open Sans SemiBold_MSFontService,Arial" font-weight="600" font-size="19" transform="translate(218.158 278)">Carrier Transit</text><path d="M215.5 297.5 480 297.5 498.5 316 480 334.5 215.5 334.5 234 316Z" stroke="#F1EDE6" stroke-width="1.33333" stroke-miterlimit="8" fill="#6560A8" fill-rule="evenodd"/><text fill="#FFFFFF" font-family="Open Sans SemiBold,Open Sans SemiBold_MSFontService,Arial" font-weight="600" font-size="19" transform="translate(277.862 320)">Enterprise Transit</text><path d="M347.5 339.5 637.5 339.5 656.5 358.5 637.5 377.5 347.5 377.5 366.5 358.5Z" stroke="#F1EDE6" stroke-width="1.33333" stroke-miterlimit="8" fill="#0E4B86" fill-rule="evenodd"/><text fill="#FFFFFF" font-family="Open Sans SemiBold,Open Sans SemiBold_MSFontService,Arial" font-weight="600" font-size="19" transform="translate(420.174 363)">Datacenter Access</text><path d="M449.5 382.5 779 382.5 797.5 401 779 419.5 449.5 419.5 468 401Z" stroke="#F1EDE6" stroke-width="1.33333" stroke-miterlimit="8" fill="#67B4E2" fill-rule="evenodd"/><text fill="#FFFFFF" font-family="Open Sans SemiBold,Open Sans SemiBold_MSFontService,Arial" font-weight="600" font-size="19" transform="translate(556.122 405)">Campus Access</text><path d="M449.5 424.5 778.5 424.5 797.5 443.5 778.5 462.5 449.5 462.5 468.5 443.5Z" stroke="#F1EDE6" stroke-width="1.33333" stroke-miterlimit="8" fill="#EE5557" fill-rule="evenodd"/><text fill="#FFFFFF" font-family="Open Sans SemiBold,Open Sans SemiBold_MSFontService,Arial" font-weight="600" font-size="19" transform="translate(535.124 448)">L4+ Services <tspan font-size="19" x="114.833" y="0">devices</tspan></text><rect x="251.5" y="524.5" width="53" height="23" fill="#1A1A1A"/><path d="M304.5 517.688 251.5 517.688Z" stroke="#1A1A1A" stroke-width="1.33333" stroke-miterlimit="8" fill="none" fill-rule="evenodd"/><path d="M254.234 517.688 254.726 485.378" stroke="#1A1A1A" stroke-width="1.33333" stroke-miterlimit="8" fill="none" fill-rule="evenodd"/><text fill="#FFFFFF" font-family="Open Sans SemiBold,Open Sans SemiBold_MSFontService,Arial" font-weight="600" font-size="19" transform="translate(256.012 542)">2010</text><path d="M193 479 787 479 787 483 193 483ZM785 475 797 481 785 487Z" fill="#1A1A1A"/><rect x="642.5" y="524.5" width="53" height="23" fill="#1A1A1A"/><path d="M695.5 517.688 642.5 517.688Z" stroke="#1A1A1A" stroke-width="1.33333" stroke-miterlimit="8" fill="none" fill-rule="evenodd"/><path d="M645.234 517.688 645.726 485.378" stroke="#1A1A1A" stroke-width="1.33333" stroke-miterlimit="8" fill="none" fill-rule="evenodd"/><text fill="#FFFFFF" font-family="Open Sans SemiBold,Open Sans SemiBold_MSFontService,Arial" font-weight="600" font-size="19" transform="translate(646.963 542)">2020</text></g></svg>