<svg viewBox="0 0 96 96" xmlns="http://www.w3.org/2000/svg" xmlns:xlink="http://www.w3.org/1999/xlink" id="Icons_Connections_M" overflow="hidden"><path d="M82.8 39C82 39 81.3 39.1 80.5 39.3L78.3 32.6C84.4 29.4 86.8 21.9 83.6 15.8 80.4 9.7 72.9 7.3 66.8 10.5 63.5 12.2 61.1 15.4 60.3 19L51.5 18.2C51.4 13.6 47.7 10 43.1 10.1 38.5 10.2 34.9 13.9 35 18.5 35 20.2 35.6 21.8 36.5 23.2L25.5 34.1C20.3 29.6 12.4 30.1 7.9 35.3 3.4 40.5 3.8 48.4 9 52.9 11.3 54.9 14.2 56 17.2 56 17.5 56 17.8 56 18.1 56L20.8 70.4C16.4 71.7 14 76.3 15.3 80.7 16.6 85.1 21.2 87.5 25.6 86.2 30 84.9 32.4 80.3 31.1 75.9 30.9 75.4 30.7 74.9 30.5 74.4L39.4 69.9 39.4 69.9C44.3 76.6 53.7 78 60.3 73.1 65.4 69.3 67.6 62.8 65.8 56.7L75.5 51.4C77.8 55.3 82.8 56.7 86.8 54.4 90.7 52.1 92.1 47.1 89.8 43.1 88.4 40.6 85.7 39 82.8 39ZM66.4 30.1C66.7 26.8 69.7 24.3 73 24.6 75.9 24.9 78.2 27.2 78.5 30.1 74.9 32.6 70.1 32.6 66.4 30.1ZM69.7 19.8C69.7 18.3 70.9 17 72.5 17 74.1 17 75.3 18.2 75.3 19.8 75.3 21.3 74.1 22.6 72.5 22.6 71 22.6 69.7 21.3 69.7 19.8L69.7 19.8ZM72.5 11C78.3 11 83 15.7 83 21.5 83 24.1 82 26.6 80.3 28.6 79.7 26.3 78 24.3 75.8 23.3 77.7 21.5 77.8 18.5 76 16.5 74.2 14.6 71.2 14.5 69.2 16.3 67.2 18.1 67.2 21.1 69 23.1 69.1 23.2 69.2 23.3 69.2 23.3 67 24.3 65.3 26.2 64.7 28.6 60.8 24.3 61.1 17.7 65.4 13.8 67.4 12 69.9 11 72.5 11ZM65.8 32.1 57.7 47.4C50.6 44.1 42.3 46.8 38.5 53.6L28.8 48.3C30.6 44 29.8 39.1 26.9 35.5L37.9 24.5C41.3 27.5 46.5 27.1 49.5 23.6 50.4 22.6 51 21.4 51.3 20.1L60.1 20.9C60.1 21.1 60.1 21.3 60.1 21.5 60 25.8 62.2 29.8 65.8 32.1ZM41.9 17.2C41.9 16.4 42.5 15.8 43.3 15.8 44.1 15.8 44.7 16.4 44.7 17.2 44.7 18 44.1 18.6 43.3 18.6 43.3 18.6 43.3 18.6 43.3 18.6 42.5 18.5 41.9 17.9 41.9 17.2ZM43.3 20.5C45 20.5 46.4 21.7 46.7 23.4 44.6 24.8 42 24.8 39.9 23.4 40.1 21.8 41.5 20.6 43.3 20.5ZM43.3 12C46.7 12 49.5 14.8 49.6 18.2 49.6 19.5 49.2 20.8 48.4 21.9 47.9 20.8 47.1 19.8 46 19.2 46.5 18.6 46.7 17.9 46.7 17.1 46.7 15.2 45.2 13.7 43.3 13.7 41.4 13.7 39.9 15.2 39.9 17.1 39.9 17.9 40.2 18.6 40.6 19.2 39.5 19.8 38.7 20.7 38.2 21.9 36.2 19.1 36.8 15.2 39.5 13.2 40.6 12.4 41.9 12 43.3 12ZM6.8 43.5C6.8 37.7 11.5 33 17.3 33 23.1 33 27.8 37.7 27.8 43.5 27.8 46.1 26.8 48.6 25.1 50.6 24.5 48.3 22.8 46.3 20.6 45.3 22.5 43.5 22.6 40.5 20.8 38.5 19 36.5 16 36.5 14 38.3 12.1 40.1 12 43.1 13.8 45.1 13.9 45.2 14 45.3 14 45.3 11.8 46.3 10.1 48.2 9.5 50.6 7.7 48.6 6.8 46.1 6.8 43.5ZM14.5 41.8C14.5 40.3 15.7 39 17.3 39 18.9 39 20.1 40.2 20.1 41.8 20.1 43.3 18.9 44.6 17.3 44.6 15.7 44.6 14.5 43.3 14.5 41.8ZM11.2 52.1C11.5 48.8 14.5 46.3 17.8 46.6 20.7 46.9 23 49.2 23.3 52.1 19.7 54.6 14.8 54.6 11.2 52.1ZM19.8 83.5C20.1 81.6 21.8 80.3 23.7 80.6 25.2 80.8 26.4 82 26.6 83.5 24.6 84.8 21.9 84.8 19.8 83.5ZM21.9 77.2C21.9 76.4 22.5 75.8 23.3 75.8 24.1 75.8 24.7 76.4 24.7 77.2 24.7 78 24.1 78.6 23.3 78.6 22.5 78.5 21.9 77.9 21.9 77.2L21.9 77.2ZM28.3 81.9C27.8 80.8 27 79.8 25.9 79.2 26.4 78.6 26.6 77.9 26.6 77.1 26.6 75.2 25.1 73.7 23.2 73.7 21.3 73.7 19.8 75.2 19.8 77.1 19.8 77.9 20.1 78.6 20.5 79.2 19.4 79.8 18.6 80.7 18.1 81.9 16.1 79.1 16.7 75.2 19.5 73.2 22.3 71.2 26.2 71.8 28.2 74.6 29.9 76.7 29.9 79.7 28.3 81.9L28.3 81.9ZM29.3 72.7C27.8 71 25.6 70 23.3 70 23.2 70 23 70 22.9 70L20.2 55.6C23.4 54.8 26.2 52.8 27.9 50L37.6 55.3C35.9 59.5 36.2 64.2 38.3 68.1L29.3 72.7ZM43.9 71.5C44.2 67.3 47.9 64.2 52.1 64.5 55.8 64.8 58.8 67.8 59.1 71.5 54.6 74.8 48.4 74.8 43.9 71.5ZM47.9 58.9C47.9 56.9 49.5 55.3 51.5 55.3 53.5 55.3 55.1 56.9 55.1 58.9 55.1 60.9 53.5 62.5 51.5 62.5 51.5 62.5 51.5 62.5 51.5 62.5 49.5 62.5 47.9 60.9 47.9 58.9ZM60.9 70C60.2 66.9 58 64.4 55.1 63.2 57.5 61.2 57.8 57.7 55.8 55.3 53.8 52.9 50.3 52.6 47.9 54.6 45.5 56.6 45.2 60.1 47.2 62.5 47.4 62.8 47.7 63 47.9 63.2 45 64.4 42.8 66.9 42.1 70 37.1 64.8 37.3 56.6 42.5 51.6 47.7 46.6 55.9 46.8 60.9 52 65.7 57 65.7 65 60.9 70ZM65.1 54.8C63.9 52.1 61.9 49.9 59.5 48.3L67.6 33C70.4 34.2 73.5 34.3 76.4 33.4L78.6 40.1C75.3 42 73.7 45.9 74.8 49.5L65.1 54.8ZM79.3 52.5C79.6 50.6 81.3 49.3 83.2 49.6 84.7 49.8 85.9 51 86.1 52.5 84.1 53.8 81.4 53.8 79.3 52.5ZM81.4 46.2C81.4 45.4 82 44.8 82.8 44.8 83.6 44.8 84.2 45.4 84.2 46.2 84.2 47 83.6 47.6 82.8 47.6 82.8 47.6 82.8 47.6 82.8 47.6 82 47.5 81.4 46.9 81.4 46.2L81.4 46.2ZM87.8 50.9C87.3 49.8 86.5 48.8 85.4 48.2 85.9 47.6 86.1 46.9 86.1 46.1 86.1 44.2 84.6 42.7 82.7 42.7 80.8 42.7 79.3 44.2 79.3 46.1 79.3 46.9 79.6 47.6 80 48.2 78.9 48.8 78.1 49.7 77.6 50.9 75.6 48.1 76.2 44.2 79 42.2 81.8 40.2 85.7 40.8 87.7 43.6 89.4 45.7 89.4 48.7 87.8 50.9 87.8 50.9 87.8 50.9 87.8 50.9Z"/></svg>