<svg viewBox="0 0 96 96" xmlns="http://www.w3.org/2000/svg" xmlns:xlink="http://www.w3.org/1999/xlink" id="Icons_Lock_M" overflow="hidden"><g id="Icons"><path d="M69.025 44.015 69.025 32.031C69.025 20.4187 59.6113 11.005 47.999 11.005 36.3867 11.005 26.973 20.4187 26.973 32.031L26.973 44.014 19.997 44.514 19.997 82.523 47.997 84.523 75.997 82.523 75.997 44.512ZM28.973 32.031C28.973 21.5232 37.4912 13.005 47.999 13.005 58.5068 13.005 67.025 21.5232 67.025 32.031L67.025 43.881 64 43.679 64 32.006C64 23.1694 56.8366 16.006 48 16.006 39.1634 16.006 32 23.1694 32 32.006L32 43.679 28.975 43.879ZM62 43.539 48 42.512 34 43.539 34 32.006C34 24.274 40.268 18.006 48 18.006 55.732 18.006 62 24.274 62 32.006ZM74 80.661 48 82.519 22 80.661 22 46.375 27.134 46.008 33.147 45.608 48 44.517 62.867 45.608 68.858 46.008 74 46.375Z"/><path d="M48 55.516C44.1175 55.5319 40.983 58.6922 40.9989 62.5748 41.01 65.2733 42.5647 67.7273 45 68.89L45 74.521 51 74.521 51 68.866C53.4176 67.6668 54.9617 65.2164 55 62.518 54.9961 58.6533 51.8647 55.521 48 55.516ZM49.635 67.288 49 67.537 49 72.521 47 72.521 47 67.508 46.328 67.275C43.7107 66.3621 42.3291 63.5003 43.2421 60.883 44.155 58.2657 47.0168 56.8841 49.6341 57.7971 51.6434 58.498 52.9924 60.3899 53 62.518 52.9562 64.6458 51.6241 66.5336 49.634 67.288Z"/></g></svg>