<svg viewBox="0 0 96 96" xmlns="http://www.w3.org/2000/svg" xmlns:xlink="http://www.w3.org/1999/xlink" id="Icons_Footprint_M" overflow="hidden"><g id="Icons"><path d="M39.5 4C36.8803 4.14581 34.87 6.37951 35 9 34.87 11.6205 36.8803 13.8542 39.5 14 42.1197 13.8542 44.13 11.6205 44 9 44.13 6.37951 42.1197 4.14581 39.5 4ZM39.5 12C37.9888 11.8476 36.8774 10.5139 37 9 36.8769 7.48591 37.9885 6.15192 39.5 6 41.0115 6.15192 42.1231 7.48591 42 9 42.1226 10.5139 41.0112 11.8476 39.5 12Z"/><path d="M30.5 14C32.012 13.8491 33.1242 12.5144 33 11 33.1242 9.48556 32.012 8.1509 30.5 8 28.988 8.1509 27.8758 9.48556 28 11 27.8758 12.5144 28.988 13.8491 30.5 14ZM30.5 10C30.653 10 31 10.378 31 11 31 11.622 30.652 12 30.5 12 30.348 12 30 11.622 30 11 30 10.378 30.349 10 30.5 10Z"/><path d="M25 17.005C26.2344 16.852 27.1217 15.7428 27 14.505 27.1246 13.2653 26.2365 12.153 25 12 23.7659 12.1535 22.8788 13.2623 23 14.5 22.8759 15.7395 23.7638 16.8515 25 17.005ZM25 14.489 25 14.489Z"/><path d="M21.5 21.006C22.329 21.006 23 20.106 23 19.006 23 17.906 22.329 17.006 21.5 17.006 20.671 17.006 20 17.901 20 19.006 20 20.111 20.673 21.006 21.5 21.006Z"/><path d="M20 23.006C20 21.906 19.328 21.006 18.5 21.006 17.672 21.006 17 21.906 17 23.006 17 24.106 17.671 25.006 18.5 25.006 19.329 25.006 20 24.111 20 23.006Z"/><path d="M34 17.005C28.2 17.005 18 25.505 18 32.005 18 41.205 22 42.105 22 49.01 22 55.915 18.1 69.015 31 69.015 45.8 69.015 37 51.21 37 47.009 37 35.809 43 32.509 43 24.003 43 18.405 39.8 17.005 34 17.005ZM38.492 32.987C36.857 36.55 35 40.588 35 47.013 35.1419 48.6482 35.4669 50.2623 35.969 51.825 37.069 55.951 38.724 62.188 36.493 65.09 35.509 66.37 33.66 67.019 31 67.019 28.292 67.019 26.406 66.397 25.232 65.119 22.939 62.619 23.365 57.68 23.74 53.319 23.873 51.776 23.999 50.319 23.999 49.012 23.9904 46.2324 23.3177 43.495 22.037 41.028 20.619 38.2377 19.9189 35.1379 20 32.009 20 26.778 29.179 19.009 34 19.009 39.989 19.009 41 20.552 41 24.009 41 27.528 39.84 30.058 38.494 32.987Z"/><path d="M56.5 37.01C59.1197 36.8642 61.13 34.6305 61 32.01 61.2623 29.5247 59.4603 27.2973 56.975 27.035 54.4897 26.7727 52.2623 28.5747 52 31.06 51.9667 31.3758 51.9667 31.6942 52 32.01 51.8695 34.6307 53.8801 36.8647 56.5 37.01ZM56.5 29.01C58.0115 29.1619 59.1231 30.4959 59 32.01 59.2542 33.3907 58.3409 34.716 56.9602 34.9702 55.5795 35.2243 54.2542 34.3111 54 32.9304 53.944 32.6261 53.944 32.3142 54 32.01 53.8757 30.4952 54.9877 29.1599 56.5 29.008Z"/><path d="M65.5 37.01C67.0126 36.8601 68.1253 35.5248 68 34.01 68.2542 32.6293 67.3409 31.304 65.9602 31.0498 64.5795 30.7957 63.2541 31.7089 63 33.0896 62.944 33.3939 62.944 33.7058 63 34.01 62.8747 35.5248 63.9874 36.8601 65.5 37.01ZM65.5 33.01C65.653 33.01 66 33.388 66 34.01 66 34.632 65.653 35.01 65.5 35.01 65.347 35.01 65 34.632 65 34.01 65 33.388 65.35 33.009 65.5 33.009Z"/><path d="M71 40.011C72.2344 39.858 73.1217 38.7489 73 37.511 73.2485 36.4064 72.5546 35.3095 71.45 35.061 70.3454 34.8125 69.2485 35.5064 69 36.611 68.9333 36.9073 68.9333 37.2147 69 37.511 68.8783 38.7489 69.7656 39.858 71 40.011ZM71 37.5 71 37.5Z"/><path d="M74.5 44.012C75.328 44.012 76 43.112 76 42.012 76 40.912 75.328 40.012 74.5 40.012 73.672 40.012 73 40.912 73 42.012 73 43.112 73.675 44.012 74.5 44.012Z"/><path d="M77.5 44.012C76.671 44.012 76 44.912 76 46.012 76 47.112 76.671 48.012 77.5 48.012 78.329 48.012 79 47.117 79 46.012 79 44.907 78.332 44.012 77.5 44.012Z"/><path d="M62 40.011C56.2 40.011 53 41.411 53 47.011 53 55.511 59 58.811 59 70.018 59 74.218 50.2 92.024 65 92.024 77.9 92.024 74 78.924 74 72.018 74 65.112 78 64.218 78 55.018 78 48.514 67.8 40.011 62 40.011ZM73.966 64.037C72.6839 66.5033 72.0098 69.2404 72 72.02 72 73.326 72.125 74.784 72.258 76.327 72.634 80.686 73.058 85.627 70.767 88.127 69.593 89.407 67.707 90.027 64.999 90.027 62.338 90.027 60.49 89.377 59.505 88.097 57.274 85.197 58.933 78.959 60.03 74.832 60.532 73.2693 60.8574 71.6552 61 70.02 61 63.595 59.145 59.557 57.508 55.994 56.165 53.064 55 50.534 55 47.013 55 43.554 56.01 42.013 62 42.013 66.821 42.013 76 49.787 76 55.013 76.0827 58.1433 75.3836 61.2449 73.966 64.037Z"/></g></svg>