<svg viewBox="0 0 19 24.1" xmlns="http://www.w3.org/2000/svg" xmlns:xlink="http://www.w3.org/1999/xlink" id="Calque_1" overflow="hidden"><g><path d="M8.6 20.3C9.3 21.4 10.3 22.3 11.6 22.6" stroke="#C76061" stroke-width="0.8945" stroke-linecap="round" stroke-linejoin="round" stroke-dasharray="0 2.6014" fill="none"/><path d="M15.4 22.1C16.5 21.4 17.4 20.4 17.7 19.1" stroke="#C76061" stroke-width="0.8945" stroke-linecap="round" stroke-linejoin="round" stroke-dasharray="0 2.6014" fill="none"/><path d="M17.2 15.4C16.5 14.3 15.5 13.4 14.2 13.1" stroke="#C76061" stroke-width="0.8945" stroke-linecap="round" stroke-linejoin="round" stroke-dasharray="0 2.6014" fill="none"/><path d="M12.9 12.9 12.9 12.9M17.8 17.8 17.8 17.8M12.9 22.8 12.9 22.8M7.9 17.8 7.9 17.8" stroke="#C76061" stroke-width="0.8945" stroke-linecap="round" stroke-linejoin="round" fill="none"/><path d="M12.9 20.2C14.2 20.2 15.2 19.2 15.2 17.9 15.2 16.6 14.2 15.6 12.9 15.6 11.6 15.6 10.6 16.6 10.6 17.9 10.6 19.2 11.6 20.2 12.9 20.2" fill="#C76061"/><line x1="2" y1="7.4" x2="12" y2="16.7" stroke="#E6EBEF" stroke-width="2.5343" stroke-linecap="round" stroke-linejoin="round" fill="none"/><path d="M11.3 7 12 16.7 2.3 16.7" stroke="#E6EBEF" stroke-width="2.5343" stroke-linecap="round" stroke-linejoin="round" fill="none"/><line x1="0.8" y1="1.1" x2="18.3" y2="1.1" stroke="#E6EBEF" stroke-miterlimit="10" fill="none"/></g></svg>