<svg viewBox="0 0 30.89 71.34" xmlns="http://www.w3.org/2000/svg" xmlns:xlink="http://www.w3.org/1999/xlink" id="Calque_1" overflow="hidden"><path d="M10.4 4.5 10.4 7.63 15.5 7.63 15.5 65.66 10.4 65.66 10.4 68.79 18.86 68.79 18.86 4.5Z" fill="#332F88"/><g><defs><rect x="10.4" y="4.5" width="18.74" height="64.29" id="SVGID_1_"/></defs><clipPath id="SVGID_00000032636032930514761780000001483335418170013335_"><use width="100%" height="100%" xlink:href="#SVGID_1_" overflow="visible"></use></clipPath><path d="M28.37 42.19C28.37 45.36 25.8 47.93 22.63 47.93 19.46 47.93 16.89 45.36 16.89 42.19 16.89 39.02 19.46 36.45 22.63 36.45 25.8 36.45 28.37 39.02 28.37 42.19" fill="#FFFFFF" clip-path="url(#SVGID_00000032636032930514761780000001483335418170013335_)"/><path d="M19.89 42.19C19.89 41.03 20.61 40.04 21.64 39.64M26.04 46.81 28.95 50.45M28.37 42.19C28.37 45.36 25.8 47.93 22.63 47.93 19.46 47.93 16.89 45.36 16.89 42.19 16.89 39.02 19.46 36.45 22.63 36.45 25.8 36.45 28.37 39.02 28.37 42.19Z" stroke="#332F88" stroke-width="0.473" stroke-miterlimit="10" fill="none" clip-path="url(#SVGID_00000032636032930514761780000001483335418170013335_)"/></g></svg>