<svg viewBox="0 0 96 96" xmlns="http://www.w3.org/2000/svg" xmlns:xlink="http://www.w3.org/1999/xlink" id="Icons_WorkFromHomeWifi_M" overflow="hidden"><g id="Icons"><path d="M6.579 49.9546 13.0683 56.4424 18.0116 51.7613 18.0116 83.9727 43.0146 83.9827 43.0146 59.0127 53.0146 59.0127 53.0146 83.9868 78.0116 83.9968 78.0116 51.7186 82.9816 56.4186 89.4445 49.9547 48.0145 10.5939ZM76.0116 81.9961 55.0146 81.9878 55.0146 57.0127 41.0146 57.0127 41.0146 81.9819 20.0116 81.9736 20.0116 49.8674 48.0146 23.35 76.0116 49.827ZM82.9423 53.6284 48.0146 20.5962 13.1054 53.6523 9.4443 49.9917 48.0143 13.3525 86.579 49.9917Z"/><path d="M84.1044 9.9072C79.0523 4.82682 72.1774 1.97911 65.0126 1.999L65.0126 3.999C78.8197 3.999 90.0126 15.1919 90.0126 28.999L92.0126 28.999C92.0323 21.8343 89.1846 14.9595 84.1044 9.9072Z"/><path d="M82.0048 28.999 84.0048 28.999C84.0159 18.5213 75.531 10.0184 65.0533 10.0073 65.0397 10.0073 65.0262 10.0073 65.0126 10.0073L65.0126 12.0073C74.3855 11.9956 81.9931 19.5844 82.0048 28.9573 82.0048 28.9712 82.0048 28.9851 82.0048 28.999Z"/><path d="M74.0087 28.999 76.0087 28.999C76.0143 22.9319 71.1006 18.009 65.0335 18.0034 65.0265 18.0034 65.0196 18.0034 65.0126 18.0034L65.0126 20.0034C69.9748 19.9972 74.0025 24.0149 74.0087 28.9771 74.0087 28.9844 74.0087 28.9917 74.0087 28.999Z"/></g></svg>