<svg viewBox="0 0 96 96" xmlns="http://www.w3.org/2000/svg" xmlns:xlink="http://www.w3.org/1999/xlink" id="Icons_WebDesign_M" overflow="hidden"><g id="Icons"><path d="M35.293 42.293 24.586 53 35.293 63.707 36.707 62.293 27.414 53 36.707 43.707 35.293 42.293Z"/><path d="M59.293 43.707 68.586 53 59.293 62.293 60.707 63.707 71.414 53 60.707 42.293 59.293 43.707Z"/><rect x="35.46" y="52.5" width="25.08" height="2" transform="matrix(0.398717 -0.917074 0.917074 0.398717 -20.202 76.188)"/><path d="M8 79 88 79 88 17 8 17ZM10 77 10 33 86 33 86 77ZM86 19 86 31 10 31 10 19Z"/><circle cx="63" cy="25" r="2"/><circle cx="70" cy="25" r="2"/><circle cx="77" cy="25" r="2"/></g></svg>