<svg viewBox="0 0 96 96" xmlns="http://www.w3.org/2000/svg" xmlns:xlink="http://www.w3.org/1999/xlink" id="Icons_Laptop_M" overflow="hidden"><g id="Icons"><path d="M77 61.994 77 26 19 26 19 62.01ZM21 28 75 28 75 59.993 21 60.01Z"/><path d="M16 25C16 23.8954 16.8954 23 18 23L78 23C79.1046 23 80 23.8954 80 25L80 66.013 82 66.013 82 25C82 22.7909 80.2091 21 78 21L18 21C15.7909 21 14 22.7909 14 25L14 66.013 16 66.013Z"/><path d="M53 68.994 53 70.994 43 70.994 43 68.994 2 68.994 2 70.994C2.00331 73.7541 4.23995 75.9907 7 75.994L89 75.994C91.7601 75.9907 93.9967 73.7541 94 70.994L94 68.994ZM89 73.994 7 73.994C5.34315 73.994 4 72.6509 4 70.994L41 70.994C40.9635 72.062 41.7997 72.9575 42.8677 72.994 42.9118 72.9955 42.9559 72.9955 43 72.994L53 72.994C54.068 73.0305 54.9635 72.1943 55 71.1263 55.0015 71.0822 55.0015 71.0381 55 70.994L92 70.994C92 72.6509 90.6569 73.994 89 73.994Z"/></g></svg>