<svg viewBox="0 0 96 96" xmlns="http://www.w3.org/2000/svg" xmlns:xlink="http://www.w3.org/1999/xlink" id="Icons_Receiver_M" overflow="hidden"><path d="M86.7 70.62 72.9 56.82C71.217 55.1079 68.4647 55.0844 66.7526 56.7674 66.7349 56.7848 66.7174 56.8023 66.7 56.82L59.3 64.52C58.46 65.32 57.14 65.32 56.3 64.52L31.5 39.811C30.6995 38.9712 30.6995 37.6508 31.5 36.811L39.2 29.211C40.9121 27.5264 40.9344 24.7729 39.2498 23.0608 39.2333 23.0441 39.2167 23.0275 39.2 23.011L25.4 9.3C24.6082 8.49144 23.5314 8.02484 22.4 8 21.239 8.02355 20.1305 8.48839 19.3 9.3L11.4 17.2C9.40903 19.0406 8.22341 21.5914 8.1 24.3 7.95997 28.7457 8.74311 33.1722 10.4 37.3 12.0452 40.9912 14.0551 44.5087 16.4 47.8 24.5487 60.0879 34.8872 70.7729 46.9 79.322 48.9003 80.8063 51.0058 82.1431 53.2 83.322 58.1686 85.9348 63.6076 87.5326 69.2 88.022 69.5207 88.0467 69.841 88.0593 70.161 88.06 73.667 88.0481 77.0117 86.5857 79.401 84.02L86.601 76.82C87.4284 76 87.896 74.8849 87.901 73.72 87.9325 72.5674 87.4998 71.4505 86.7 70.62ZM20.711 10.72C21.167 10.2816 21.7679 10.0254 22.4 10 23.0027 10.0285 23.5718 10.2861 23.991 10.72L37.791 24.42C38.7224 25.3231 38.7453 26.8102 37.8422 27.7416 37.8283 27.7559 37.8142 27.77 37.8 27.784L34.98 30.566 17.923 13.51ZM77.99 82.609 77.963 82.636 77.938 82.663C75.9297 84.8245 73.1145 86.0558 70.164 86.063 69.896 86.063 69.626 86.052 69.343 86.03 64.0243 85.5626 58.8522 84.0395 54.129 81.55 52.0297 80.421 50.0148 79.1417 48.1 77.722L48.079 77.706 48.056 77.69C36.2285 69.2842 26.0535 58.7681 18.042 46.67 15.7841 43.5062 13.8478 40.1247 12.262 36.576 11.09 33.286 9.8 28.946 10.1 24.44L10.1 24.41 10.1 24.381C10.2068 22.1947 11.169 20.138 12.779 18.655L12.798 18.637 12.816 18.619 16.51 14.924 33.557 31.971 30.087 35.4C28.5037 37.0216 28.5037 39.6104 30.087 41.232L54.887 65.932C56.5193 67.5239 59.127 67.5115 60.744 65.904L64.049 62.464 81.092 79.506ZM85.19 75.409 82.506 78.094 65.435 61.022 68.118 58.23C69.0192 57.2991 70.5044 57.2751 71.4353 58.1763 71.4535 58.1939 71.4714 58.2118 71.489 58.23L85.289 72.03C86.1456 73.0065 86.102 74.479 85.189 75.403Z"/></svg>