<svg viewBox="0 0 96 96" xmlns="http://www.w3.org/2000/svg" xmlns:xlink="http://www.w3.org/1999/xlink" id="Icons_SmartPhone_M" overflow="hidden"><g id="Icons"><path d="M30 14 28 14 28 82.022 68 82.022 68 14 30 14ZM66 80.022 30 80.022 30 16 66 16Z"/><path d="M71 4 25 4C23.8968 4.00329 23.0033 4.8968 23 6L23 90.025C23.0038 91.128 23.897 92.0212 25 92.025L71 92.025C72.1027 92.0206 72.9956 91.1277 73 90.025L73 6C72.9962 4.89703 72.103 4.00384 71 4ZM71 90.025 25 90.025 25 6 71 6Z"/><path d="M44 11 53 11C53.5523 11 54 10.5523 54 10 54 9.44771 53.5523 9 53 9L44 9C43.4477 9 43 9.44771 43 10 43 10.5523 43.4477 11 44 11Z"/></g></svg>