<svg viewBox="0 0 96 96" xmlns="http://www.w3.org/2000/svg" xmlns:xlink="http://www.w3.org/1999/xlink" id="Icons_Server_M" overflow="hidden"><g id="Icons"><path d="M84 77 56 77 56 73 49 73 49 64 76 64C78.2091 64 80 62.2091 80 60L80 50C79.9963 48.8469 79.492 47.7522 78.618 47 79.492 46.2478 79.9963 45.1531 80 44L80 34C79.9963 32.8469 79.492 31.7522 78.618 31 79.492 30.2478 79.9963 29.1531 80 28L80 18C80 15.7909 78.2091 14 76 14L20 14C17.7909 14 16 15.7909 16 18L16 28C16.0037 29.1531 16.508 30.2478 17.382 31 16.508 31.7522 16.0037 32.8469 16 34L16 44C16.0037 45.1531 16.508 46.2478 17.382 47 16.508 47.7522 16.0037 48.8469 16 50L16 60C16 62.2091 17.7909 64 20 64L47 64 47 73 40 73 40 77 12 77 12 79 40 79 40 83 56 83 56 79 84 79ZM18 28 18 18C18 16.8954 18.8954 16 20 16L76 16C77.1046 16 78 16.8954 78 18L78 28C78 29.1046 77.1046 30 76 30L20 30C18.8954 30 18 29.1046 18 28ZM18 44 18 34C18 32.8954 18.8954 32 20 32L76 32C77.1046 32 78 32.8954 78 34L78 44C78 45.1046 77.1046 46 76 46L20 46C18.8954 46 18 45.1046 18 44ZM18 60 18 50C18 48.8954 18.8954 48 20 48L76 48C77.1046 48 78 48.8954 78 50L78 60C78 61.1046 77.1046 62 76 62L20 62C18.8954 62 18 61.1046 18 60ZM54 81 42 81 42 75 54 75Z"/><circle cx="26" cy="23" r="2"/><circle cx="36" cy="23" r="2"/><circle cx="46" cy="23" r="2"/><circle cx="26" cy="39" r="2"/><circle cx="36" cy="39" r="2"/><circle cx="46" cy="39" r="2"/><circle cx="26" cy="55" r="2"/><circle cx="36" cy="55" r="2"/><circle cx="46" cy="55" r="2"/></g></svg>